<?xml version="1.0" encoding="UTF-8"?>
<!DOCTYPE svg PUBLIC "-//W3C//DTD SVG 1.1//EN" "http://www.w3.org/Graphics/SVG/1.1/DTD/svg11.dtd">
<!-- Creator: CorelDRAW X8 -->
<svg xmlns="http://www.w3.org/2000/svg" xml:space="preserve" width="65.3965mm" height="28.068mm" version="1.1" style="shape-rendering:geometricPrecision; text-rendering:geometricPrecision; image-rendering:optimizeQuality; fill-rule:evenodd; clip-rule:evenodd"
viewBox="0 0 2278 978"
 xmlns:xlink="http://www.w3.org/1999/xlink">
 <defs>
  <style type="text/css">
   <![CDATA[
    .str0 {stroke:#C5C6C6;stroke-width:6.9656}
    .fil0 {fill:#FEFEFE}
    .fil1 {fill:#F92D1E}
    .fil2 {fill:#2B2A29;fill-rule:nonzero}
   ]]>
  </style>
 </defs>
 <g id="Capa_x0020_1">
  <metadata id="CorelCorpID_0Corel-Layer"/>
  <path class="fil1" d="M151 376c35,0 135,-35 295,-34 -5,22 -22,51 -31,80 -83,277 256,224 416,192 15,-3 30,-9 40,-10 -30,0 -105,16 -175,16 -174,3 -328,-42 -260,-241 5,-14 11,-23 14,-36 79,-1 155,22 191,68 51,64 16,138 -3,200 14,-10 245,-457 -487,-235z"/>
  <path class="fil1" d="M343 538c1,97 72,132 163,142 68,7 175,-7 244,-21l24 -5c12,-5 2,-1 8,-5 -55,2 -101,12 -162,12 -86,0 -176,-14 -222,-60 -26,-26 -40,-55 -39,-101 2,-53 22,-83 28,-111 -21,31 -44,99 -44,149z"/>
  <polygon class="fil2" points="745,524 745,415 776,415 776,509 816,509 816,524 "/>
  <path id="1" class="fil2" d="M850 478l27 0 -14 -39 -13 39zm-31 46l38 -109 29 0 40 109 -32 0 -12 -32 -37 0 -10 32 -16 0z"/>
  <path id="2" class="fil2" d="M1091 497c-5,10 -11,17 -20,22 -8,5 -18,8 -30,8 -7,0 -14,-1 -21,-4 -6,-2 -12,-5 -17,-9 -7,-5 -12,-12 -15,-19 -3,-7 -5,-16 -5,-24 0,-17 5,-31 17,-42 11,-11 25,-16 42,-16 10,0 19,2 26,6 8,4 14,10 20,18l-14 10c-4,-7 -8,-12 -12,-16 -5,-3 -11,-5 -17,-5 -9,0 -16,4 -22,11 -5,8 -7,19 -7,33 0,12 3,23 9,31 5,7 13,11 23,11 6,0 11,-2 16,-6 5,-4 10,-9 14,-17l13 8z"/>
  <path id="3" class="fil2" d="M1133 470c0,13 3,24 7,32 5,7 11,11 18,11 8,0 14,-4 19,-11 4,-8 6,-19 6,-32 0,-14 -2,-25 -6,-32 -5,-8 -11,-12 -19,-12 -7,0 -14,4 -18,12 -4,7 -7,18 -7,32zm25 -57c8,0 15,1 22,3 7,3 13,6 18,11 6,5 11,12 14,19 3,7 4,15 4,24 0,8 -1,16 -4,24 -3,7 -8,13 -14,18 -5,5 -11,8 -18,11 -7,2 -14,4 -22,4 -7,0 -14,-2 -21,-4 -7,-3 -13,-6 -18,-11 -6,-5 -11,-11 -14,-19 -3,-7 -5,-15 -5,-23 0,-9 2,-17 5,-24 3,-7 8,-14 14,-19 5,-5 11,-8 18,-11 7,-2 14,-3 21,-3z"/>
  <polygon id="4" class="fil2" points="1235,524 1235,415 1269,415 1305,471 1305,415 1321,415 1321,524 1304,524 1252,444 1252,524 "/>
  <polygon id="5" class="fil2" points="1365,524 1365,430 1336,430 1336,415 1425,415 1425,430 1396,430 1396,524 "/>
  <path id="6" class="fil2" d="M1440 524l0 -109 47 0c14,0 25,3 32,9 8,6 12,14 12,24 0,8 -2,14 -6,19 -4,5 -11,8 -19,10l26 47 -34 0 -27 -55 7 0c8,0 13,-2 17,-5 4,-4 6,-8 6,-15 0,-7 -2,-12 -6,-16 -4,-3 -10,-5 -18,-5l-8 0 0 96 -29 0z"/>
  <path id="7" class="fil2" d="M1569 478l27 0 -15 -39 -12 39zm-31 46l37 -109 30 0 39 109 -32 0 -11 -32 -37 0 -11 32 -15 0z"/>
  <polygon id="8" class="fil2" points="1657,524 1657,415 1688,415 1688,509 1727,509 1727,524 "/>
  <path id="9" class="fil2" d="M1764 470c0,13 2,24 7,32 4,7 10,11 18,11 8,0 14,-4 18,-11 5,-8 7,-19 7,-32 0,-14 -2,-25 -6,-32 -5,-8 -11,-12 -19,-12 -8,0 -14,4 -18,12 -5,7 -7,18 -7,32zm25 -57c8,0 15,1 22,3 7,3 13,6 18,11 6,5 10,12 13,19 4,7 5,15 5,24 0,8 -1,16 -5,24 -3,7 -7,13 -13,18 -5,5 -11,8 -18,11 -7,2 -14,4 -22,4 -7,0 -15,-2 -22,-4 -7,-3 -12,-6 -17,-11 -7,-5 -11,-11 -14,-19 -3,-7 -5,-15 -5,-23 0,-9 2,-17 5,-24 3,-7 8,-14 14,-19 4,-5 10,-8 17,-11 7,-2 14,-3 22,-3z"/>
  <path id="10" class="fil2" d="M1866 524l0 -109 48 0c13,0 24,3 32,9 8,6 12,14 12,24 0,8 -2,14 -7,19 -4,5 -10,8 -19,10l27 47 -35 0 -26 -55 7 0c7,0 13,-2 17,-5 3,-4 5,-8 5,-15 0,-7 -2,-12 -6,-16 -3,-3 -9,-5 -17,-5l-8 0 0 96 -30 0z"/>
  <path id="11" class="fil2" d="M2009 524l-31 0 0 -109 31 0 0 109zm-27 -120l16 -29 17 0 -23 29 -10 0z"/>
  <path id="12" class="fil2" d="M2053 478l27 0 -14 -39 -13 39zm-31 46l37 -109 30 0 40 109 -33 0 -11 -32 -37 0 -11 32 -15 0z"/>
  <path class="fil2" d="M938 611c-3,2 -7,4 -11,6 -3,1 -7,2 -12,2 -3,0 -6,0 -8,-1 -3,-1 -6,-3 -8,-4 -3,-3 -5,-5 -6,-8 -1,-4 -2,-7 -2,-11 0,-3 1,-7 2,-10 1,-3 3,-6 6,-8 2,-2 5,-3 7,-4 3,-1 6,-2 10,-2 4,0 7,1 10,3 4,2 6,4 8,8l-5 4c-2,-3 -3,-5 -5,-7 -2,-1 -5,-2 -7,-2 -4,0 -7,2 -9,5 -2,3 -4,7 -4,13 0,6 2,10 4,13 3,3 6,5 10,5 1,0 2,0 4,-1 1,0 2,-1 3,-2l0 -12 13 0 0 13z"/>
  <polygon id="1" class="fil2" points="945,618 945,572 973,572 973,579 958,579 958,592 973,592 973,598 958,598 958,612 974,612 974,618 "/>
  <polygon id="2" class="fil2" points="984,618 984,572 998,572 1013,596 1013,572 1020,572 1020,618 1012,618 991,585 991,618 "/>
  <polygon id="3" class="fil2" points="1031,618 1031,572 1059,572 1059,579 1043,579 1043,592 1058,592 1058,598 1043,598 1043,612 1060,612 1060,618 "/>
  <path id="4" class="fil2" d="M1069 618l0 -46 20 0c6,0 10,2 14,4 3,3 5,6 5,10 0,3 -1,6 -3,8 -2,2 -4,4 -8,4l11 20 -14 0 -11 -23 3 0c3,0 5,-1 7,-2 1,-2 2,-4 2,-6 0,-3 -1,-5 -3,-7 -1,-1 -4,-2 -7,-2l-3 0 0 40 -13 0z"/>
  <path id="5" class="fil2" d="M1123 599l11 0 -5 -17 -6 17zm-13 19l16 -46 12 0 17 46 -14 0 -4 -14 -16 0 -4 14 -7 0z"/>
  <polygon id="6" class="fil2" points="1160,618 1160,572 1173,572 1173,612 1189,612 1189,618 "/>
  <path id="7" class="fil2" d="M1231 579l0 33 4 0c4,0 8,-2 10,-5 2,-2 3,-7 3,-12 0,-5 -1,-9 -3,-12 -2,-3 -6,-4 -10,-4l-4 0zm-13 39l0 -46 15 0c5,0 8,1 11,1 3,1 5,2 8,4 3,2 5,4 7,8 2,3 3,7 3,10 0,4 -1,7 -2,10 -2,3 -4,6 -6,8 -2,2 -4,3 -7,4 -2,0 -5,1 -8,1l-21 0z"/>
  <polygon id="8" class="fil2" points="1270,618 1270,572 1298,572 1298,579 1283,579 1283,592 1297,592 1297,598 1283,598 1283,612 1299,612 1299,618 "/>
  <polygon id="9" class="fil2" points="1330,618 1330,572 1343,572 1343,612 1359,612 1359,618 "/>
  <path id="10" class="fil2" d="M1374 599l11 0 -6 -17 -5 17zm-13 19l15 -46 13 0 16 46 -13 0 -5 -14 -15 0 -5 14 -6 0z"/>
  <path id="11" class="fil2" d="M1432 618l0 -46 20 0c6,0 10,2 13,4 4,3 5,6 5,10 0,3 -1,6 -2,8 -2,2 -5,4 -8,4l11 20 -15 0 -11 -23 3 0c3,0 6,-1 7,-2 2,-2 3,-4 3,-6 0,-3 -1,-5 -3,-7 -1,-1 -4,-2 -7,-2l-3 0 0 40 -13 0z"/>
  <polygon id="12" class="fil2" points="1479,618 1479,572 1507,572 1507,579 1491,579 1491,592 1506,592 1506,598 1491,598 1491,612 1508,612 1508,618 "/>
  <path id="13" class="fil2" d="M1530 578l0 16 3 0c3,0 5,-1 6,-2 2,-1 3,-3 3,-5 0,-3 -1,-5 -3,-7 -2,-1 -4,-2 -7,-2l-2 0zm-13 40l0 -46 19 0c5,0 10,2 13,4 3,3 5,6 5,11 0,4 -1,7 -4,9 -2,2 -6,3 -10,3l-10 0 0 19 -13 0z"/>
  <path id="14" class="fil2" d="M1561 572l13 0 0 27c0,5 0,8 1,10 2,2 4,2 7,2 3,0 5,0 6,-2 1,-2 2,-5 2,-10l0 -27 6 0 0 29c0,6 -1,11 -4,14 -3,3 -7,4 -13,4 -3,0 -6,0 -8,-1 -2,-1 -4,-2 -6,-4 -1,-1 -3,-3 -3,-5 -1,-2 -1,-4 -1,-8l0 -29zm15 -4l7 -12 7 0 -10 12 -4 0z"/>
  <path id="15" class="fil2" d="M1619 597l0 15 3 0c4,0 6,0 7,-1 2,-2 2,-4 2,-6 0,-3 0,-5 -2,-6 -1,-1 -3,-2 -6,-2l-4 0zm0 -19l0 14 3 0c3,0 5,-1 7,-2 1,-1 2,-3 2,-5 0,-2 -1,-4 -2,-5 -2,-1 -4,-2 -6,-2l-4 0zm-12 40l0 -46 21 0c4,0 8,2 11,4 3,2 4,5 4,9 0,3 0,5 -2,7 -2,1 -4,2 -7,3 3,1 6,2 8,4 2,2 3,4 3,7 0,4 -1,7 -4,9 -3,2 -7,3 -12,3l-22 0z"/>
  <polygon id="16" class="fil2" points="1652,618 1652,572 1665,572 1665,612 1682,612 1682,618 "/>
  <polygon id="17" class="fil2" points="1702,618 1689,618 1689,572 1702,572 "/>
  <path id="18" class="fil2" d="M1755 607c-2,4 -5,7 -8,9 -4,2 -8,3 -13,3 -3,0 -6,0 -9,-1 -2,-1 -5,-3 -7,-4 -2,-3 -5,-5 -6,-8 -1,-3 -2,-7 -2,-10 0,-7 2,-13 7,-18 4,-4 10,-7 18,-7 4,0 7,1 10,3 4,2 6,4 8,8l-5 4c-2,-3 -3,-5 -5,-7 -2,-1 -5,-2 -7,-2 -4,0 -7,2 -9,5 -2,3 -4,7 -4,13 0,6 2,10 4,13 3,3 6,5 10,5 2,0 5,-1 7,-2 2,-2 4,-5 5,-8l6 4z"/>
  <path id="19" class="fil2" d="M1769 599l11 0 -6 -17 -5 17zm-13 19l16 -46 12 0 17 46 -14 0 -5 -14 -15 0 -4 14 -7 0z"/>
 </g>
</svg>
