<?xml version="1.0" encoding="UTF-8"?>
<!DOCTYPE svg PUBLIC "-//W3C//DTD SVG 1.1//EN" "http://www.w3.org/Graphics/SVG/1.1/DTD/svg11.dtd">
<!-- Creator: CorelDRAW X8 -->
<svg xmlns="http://www.w3.org/2000/svg" xml:space="preserve" width="65.3965mm" height="28.068mm" version="1.1" style="shape-rendering:geometricPrecision; text-rendering:geometricPrecision; image-rendering:optimizeQuality; fill-rule:evenodd; clip-rule:evenodd"
viewBox="0 0 2278 978"
 xmlns:xlink="http://www.w3.org/1999/xlink">
 <defs>
  <style type="text/css">
   <![CDATA[
    .str0 {stroke:#C5C6C6;stroke-width:6.9656}
    .fil0 {fill:#FEFEFE}
    .fil4 {fill:#848587}
    .fil1 {fill:#C4004A}
    .fil2 {fill:#ED732A}
    .fil3 {fill:#F9B21F}
   ]]>
  </style>
 </defs>
 <g id="Capa_x0020_1">
  <metadata id="CorelCorpID_0Corel-Layer"/>
  <g id="_1921742108384">
   <path class="fil1" d="M420 416c15,-5 28,-26 22,-49 -5,-17 -20,-32 -42,-32 -34,1 -51,38 -37,64 6,10 10,12 19,18 -3,2 -6,3 -9,6 -8,8 -14,17 -15,31 -1,19 0,41 0,60 0,32 -3,89 7,115 17,48 68,72 115,59 16,-4 31,-14 38,-22 -16,0 -25,0 -38,-6 -38,-17 -36,-58 -36,-94 0,-29 0,-58 0,-87 -1,-12 1,-28 -4,-39 -6,-17 -16,-19 -20,-24z"/>
   <path class="fil2" d="M533 361c9,-6 15,-9 20,-18 4,-9 6,-20 4,-31 -10,-44 -72,-43 -82,0 -4,18 2,30 12,41 4,4 7,5 11,8 -5,4 -4,1 -13,9 -15,16 -12,33 -12,54l0 177c1,58 85,59 85,-2l0 -176c0,-14 2,-29 -4,-40 -6,-16 -15,-17 -21,-22z"/>
   <path class="fil3" d="M650 417c9,-5 13,-10 18,-19 5,-8 7,-20 4,-30 -11,-44 -72,-44 -82,0 -6,24 8,41 22,48l-7 6c-20,14 -17,40 -17,61 0,30 1,59 1,89 0,28 -3,54 -14,76 -12,21 -25,32 -48,41 32,9 70,2 94,-12 64,-38 53,-107 53,-172 0,-15 1,-42 -1,-56 -2,-11 -8,-20 -15,-27 -3,-2 -6,-3 -8,-5z"/>
   <path class="fil4" d="M1736 614c0,-14 -2,-86 0,-92 15,-6 36,-2 46,6 32,23 19,110 -46,86zm-39 -117l0 226 39 0 0 -77c15,2 24,6 45,0 14,-4 27,-12 34,-19 18,-18 29,-45 23,-80 -12,-70 -92,-68 -141,-50z"/>
   <path class="fil4" d="M1139 614c-17,5 -35,2 -47,-7 -24,-17 -25,-63 1,-81 11,-7 31,-11 46,-6l0 94zm0 -126c-19,0 -29,-3 -48,3 -14,4 -26,12 -33,20 -35,34 -35,114 31,134 25,7 70,4 89,-9l0 -218 -39 0 0 70z"/>
   <path class="fil4" d="M1584 518c27,-4 41,18 43,43 2,26 -7,53 -30,57 -28,5 -42,-18 -44,-43 -2,-28 7,-53 31,-57zm-71 60c4,45 37,76 87,70 45,-5 71,-44 67,-90 -4,-45 -37,-77 -87,-71 -43,5 -71,43 -67,91z"/>
   <path class="fil4" d="M905 538c3,-6 56,-39 61,6 3,26 -2,79 1,102l39 0c1,-10 0,-57 0,-71 0,-20 2,-46 -6,-63 -13,-28 -46,-31 -74,-19 -6,3 -19,11 -21,13l-1 -19 -38 0 0 159 39 0 0 -108z"/>
   <path class="fil4" d="M1305 550l-59 0c-2,-8 4,-18 8,-23 8,-13 32,-15 43,-1 4,5 10,16 8,24zm34 81l-9 -24c-15,5 -32,15 -55,8 -16,-5 -30,-21 -28,-37l99 0c0,-21 -1,-40 -11,-57 -7,-14 -19,-25 -36,-31 -43,-14 -75,12 -86,43 -19,53 5,119 75,116 15,-1 42,-8 51,-18z"/>
   <path class="fil4" d="M1492 498c-13,-7 -27,-11 -43,-11 -97,0 -108,136 -29,159 20,6 43,3 62,-5 6,-3 11,-6 16,-8l-10 -27c-100,52 -108,-105 -22,-88 15,3 17,8 25,11l1 -31z"/>
   <polygon class="fil4" points="787,646 826,646 826,418 788,418 787,418 "/>
   <polygon class="fil4" points="1873,646 1912,646 1912,487 1873,487 "/>
   <path class="fil4" d="M1888 420c-27,7 -17,46 9,39 9,-3 18,-13 14,-25 -2,-9 -12,-17 -23,-14z"/>
  </g>
 </g>
</svg>
