<?xml version="1.0" encoding="UTF-8"?>
<!DOCTYPE svg PUBLIC "-//W3C//DTD SVG 1.1//EN" "http://www.w3.org/Graphics/SVG/1.1/DTD/svg11.dtd">
<!-- Creator: CorelDRAW X8 -->
<svg xmlns="http://www.w3.org/2000/svg" xml:space="preserve" width="65.3965mm" height="28.068mm" version="1.1" style="shape-rendering:geometricPrecision; text-rendering:geometricPrecision; image-rendering:optimizeQuality; fill-rule:evenodd; clip-rule:evenodd"
viewBox="0 0 9679 4154"
 xmlns:xlink="http://www.w3.org/1999/xlink">
 <defs>
  <style type="text/css">
   <![CDATA[
    .str0 {stroke:#C5C6C6;stroke-width:29.6024}
    .str1 {stroke:#2B2A29;stroke-width:29.6024}
    .fil5 {fill:none}
    .fil0 {fill:#FEFEFE}
    .fil2 {fill:#1D120E}
    .fil3 {fill:#1E130F}
    .fil1 {fill:#F8BC02}
    .fil4 {fill:#FEFEF9}
    .fil6 {fill:#2B2A29;fill-rule:nonzero}
   ]]>
  </style>
 </defs>
 <g id="Capa_x0020_1">
  <metadata id="CorelCorpID_0Corel-Layer"/>
  <g id="_1921741576592">
   <g>
    <path class="fil1" d="M1993 1824c41,-145 136,-238 262,-305l29 67c-72,93 -137,37 -291,238zm337 -341c268,-25 331,11 491,140 -91,-25 -155,-59 -271,-59 -168,1 -211,88 -220,-81zm-398 579c95,664 1160,573 1067,-171 -85,-684 -1172,-567 -1067,171z"/>
    <polygon class="fil2" points="5929,1667 6438,1665 6438,1391 5557,1385 5557,2566 6449,2566 6441,2286 5929,2281 5936,2092 6367,2091 6367,1854 5933,1854 "/>
    <path class="fil2" d="M5404 2174c-985,601 -967,-1020 -8,-381l11 -337c-177,-143 -565,-124 -769,-30 -508,232 -494,884 13,1109 279,125 506,58 755,-41l-2 -320z"/>
    <path class="fil2" d="M3282 2543c236,37 415,104 649,9 154,-62 342,-252 213,-484 -86,-156 -276,-203 -457,-301 -149,-80 -68,-162 94,-141 108,14 190,65 289,98l-9 -305c-330,-100 -766,-104 -821,233 -30,188 102,304 216,367 63,36 130,68 204,102 91,41 138,40 117,156 -180,97 -376,-23 -532,-80l37 346z"/>
    <path class="fil3" d="M1932 2062c-105,-738 982,-855 1067,-171 93,744 -972,835 -1067,171zm98 419c162,54 213,174 498,148 191,-17 328,-115 420,-213 577,-618 -370,-1502 -936,-914 -407,424 -89,795 -56,905 -74,78 -204,168 -276,236 -66,62 -215,193 -245,240 48,52 67,71 119,119 38,-22 199,-197 253,-255l223 -266z"/>
    <path class="fil4" d="M2821 1623c-160,-129 -223,-165 -491,-140 9,169 52,82 220,81 116,0 180,34 271,59z"/>
    <path class="fil4" d="M1993 1824c154,-201 219,-145 291,-238l-29 -67c-126,67 -221,160 -262,305z"/>
   </g>
   <polygon class="fil5 str1" points="6610,1309 6633,1309 6633,2661 6610,2661 "/>
   <path class="fil6" d="M6873 1666c50,0 78,-28 78,-85 0,-58 -28,-86 -78,-86 -49,0 -77,28 -77,86 0,57 28,85 77,85zm0 -146c33,0 49,20 49,61 0,40 -16,60 -49,60 -32,0 -48,-20 -48,-60 0,-41 16,-61 48,-61z"/>
   <path id="1" class="fil6" d="M6998 1563c0,-7 -6,-13 -13,-13 -8,0 -13,6 -13,13l0 89c0,7 5,13 13,13 7,0 13,-6 13,-13l0 -51c0,-16 10,-27 26,-27 7,0 13,-6 13,-13 0,-7 -6,-12 -13,-12 -10,0 -21,6 -26,15l0 -1z"/>
   <path id="2" class="fil6" d="M7143 1590c0,-9 -2,-18 -7,-24 1,-2 4,-3 7,-3 6,0 11,-4 11,-11 0,-6 -5,-11 -11,-11 -12,0 -20,6 -24,12 -7,-3 -15,-4 -24,-4 -30,0 -48,15 -48,41 0,10 2,18 8,26 -6,4 -8,10 -8,16 0,10 5,16 11,20 -10,7 -15,15 -15,24 0,29 28,36 55,36 31,0 55,-12 55,-37 0,-24 -21,-33 -46,-33l-23 0c-11,0 -14,-4 -14,-9 0,-1 1,-3 2,-5 6,3 15,4 23,4 30,0 48,-16 48,-42zm-69 0c0,-11 7,-19 21,-19 14,0 22,8 22,19 0,11 -8,20 -22,20 -14,0 -21,-9 -21,-20zm52 85c0,10 -13,15 -28,15 -18,0 -28,-5 -28,-14 0,-5 5,-11 14,-12l23 0c11,0 19,4 19,11z"/>
   <path id="3" class="fil6" d="M7215 1572c14,0 22,7 22,18l0 5 -32 0c-21,0 -39,12 -39,34 0,22 15,37 39,37 15,0 26,-3 32,-14 0,7 6,13 13,13 8,0 13,-6 13,-13l0 -63c0,-26 -18,-40 -48,-40 -21,0 -33,8 -40,15 -2,3 -3,6 -3,8 0,7 5,12 11,12 3,0 5,-1 8,-3 6,-4 13,-9 24,-9zm-3 72c-13,0 -20,-5 -20,-15 0,-9 6,-14 17,-14l28 0 0 7c0,14 -12,22 -25,22z"/>
   <path id="4" class="fil6" d="M7344 1549c-16,0 -26,7 -31,14 0,-7 -6,-13 -13,-13 -7,0 -13,6 -13,13l0 89c0,8 5,13 13,13 7,0 13,-5 13,-13l0 -54c0,-15 6,-25 25,-25 15,0 21,9 21,23l0 56c0,8 5,13 13,13 8,0 14,-5 14,-13l0 -61c0,-21 -8,-42 -42,-42z"/>
   <path id="5" class="fil6" d="M7436 1563c0,-7 -5,-13 -13,-13 -7,0 -13,6 -13,13l0 89c0,7 6,13 13,13 8,0 13,-6 13,-13l0 -89zm-13 -26c10,0 16,-6 16,-16 0,-11 -6,-16 -16,-16 -10,0 -15,5 -15,16 0,10 5,16 15,16z"/>
   <path id="6" class="fil6" d="M7500 1572c10,0 17,3 22,7 3,2 5,4 9,4 6,0 11,-6 11,-12 0,-4 -1,-5 -2,-7 -7,-9 -22,-15 -40,-15 -22,0 -41,10 -41,32 0,42 60,32 60,51 0,7 -7,10 -18,10 -12,0 -20,-4 -27,-10 -2,-2 -5,-3 -7,-3 -7,0 -12,6 -12,12 0,3 1,5 3,8 6,7 22,17 43,17 25,0 45,-12 45,-35 0,-40 -60,-32 -60,-50 0,-6 5,-9 14,-9z"/>
   <path id="7" class="fil6" d="M7694 1549c-17,0 -27,5 -35,15 -6,-9 -16,-15 -36,-15 -17,0 -27,7 -32,14 0,-7 -6,-13 -13,-13 -7,0 -13,6 -13,13l0 89c0,8 5,13 13,13 8,0 13,-5 13,-13l0 -54c0,-15 6,-25 25,-25 16,0 21,9 21,23l0 56c0,8 6,13 13,13 8,0 14,-5 14,-13l0 -56c0,-14 7,-23 24,-23 16,0 22,9 22,23l0 56c0,8 5,13 13,13 7,0 13,-5 13,-13l0 -61c0,-21 -9,-42 -42,-42z"/>
   <path id="8" class="fil6" d="M7861 1608c0,-41 -20,-59 -53,-59 -33,0 -54,18 -54,59 0,39 21,58 54,58 33,0 53,-19 53,-58zm-26 0c0,23 -10,36 -27,36 -18,0 -27,-13 -27,-36 0,-25 9,-37 27,-37 17,0 27,12 27,37z"/>
   <path id="9" class="fil6" d="M6893 1803c3,3 7,5 10,5 8,0 14,-5 14,-13 0,-3 -1,-5 -3,-7 -10,-14 -31,-23 -55,-23 -39,0 -57,20 -57,44 0,59 90,43 90,79 0,15 -11,22 -33,22 -17,0 -30,-8 -41,-18 -2,-3 -5,-6 -10,-6 -7,0 -13,6 -13,13 0,3 0,5 2,7 9,16 32,30 62,30 40,0 61,-19 61,-48 0,-62 -89,-47 -89,-79 0,-9 7,-19 28,-19 13,0 26,6 34,13l0 0z"/>
   <path id="10" class="fil6" d="M6952 1820c-7,0 -13,5 -13,13l0 57c0,24 9,46 48,46 39,0 48,-22 48,-46l0 -57c0,-8 -5,-13 -13,-13 -7,0 -13,5 -13,13l0 57c0,11 -4,22 -22,22 -18,0 -22,-11 -22,-22l0 -57c0,-8 -6,-13 -13,-13z"/>
   <path id="11" class="fil6" d="M7086 1833c0,-8 -6,-13 -13,-13 -7,0 -13,5 -13,13l0 136c0,7 6,13 13,13 7,0 13,-6 13,-13l0 -44c6,7 17,11 29,11 32,0 50,-19 50,-59 0,-40 -18,-59 -50,-59 -14,0 -25,9 -29,15zm52 44c0,24 -9,36 -26,36 -17,0 -26,-12 -26,-36 0,-24 9,-36 26,-36 17,0 26,12 26,36z"/>
   <path id="12" class="fil6" d="M7180 1877c0,40 21,59 55,59 22,0 35,-10 39,-14 2,-2 4,-5 4,-9 0,-6 -5,-11 -11,-11 -4,0 -6,1 -8,3 -6,3 -14,7 -24,7 -17,0 -29,-8 -29,-26l60 0c15,0 15,-10 15,-19 0,-17 -7,-49 -49,-49 -33,0 -52,21 -52,59zm52 -36c16,0 23,11 23,23l-48 0c1,-15 11,-23 25,-23z"/>
   <path id="13" class="fil6" d="M7326 1833c0,-8 -6,-13 -13,-13 -7,0 -13,5 -13,13l0 88c0,8 6,14 13,14 7,0 13,-6 13,-14l0 -50c0,-17 10,-28 26,-28 7,0 13,-5 13,-12 0,-7 -6,-13 -13,-13 -10,0 -21,7 -26,16l0 -1z"/>
   <path id="14" class="fil6" d="M7407 1833c0,-8 -6,-13 -14,-13 -7,0 -13,5 -13,13l0 88c0,8 6,14 13,14 8,0 14,-6 14,-14l0 -88zm-14 -27c11,0 16,-5 16,-15 0,-11 -5,-16 -16,-16 -10,0 -15,5 -15,16 0,10 5,15 15,15z"/>
   <path id="15" class="fil6" d="M7533 1877c0,-40 -21,-59 -54,-59 -33,0 -53,19 -53,59 0,40 20,59 53,59 33,0 54,-19 54,-59zm-27 0c0,24 -9,36 -27,36 -17,0 -26,-12 -26,-36 0,-24 9,-36 26,-36 18,0 27,12 27,36z"/>
   <path id="16" class="fil6" d="M7579 1833c0,-8 -6,-13 -13,-13 -8,0 -14,5 -14,13l0 88c0,8 6,14 14,14 7,0 13,-6 13,-14l0 -50c0,-17 9,-28 26,-28 7,0 13,-5 13,-12 0,-7 -6,-13 -13,-13 -10,0 -22,7 -26,16l0 -1z"/>
   <path id="17" class="fil6" d="M7758 1887c0,17 -10,26 -24,26 -17,0 -26,-12 -26,-36 0,-24 10,-36 26,-36 15,0 24,12 24,12l0 34zm-27 -69c-30,0 -49,19 -49,59 0,40 19,59 52,59 30,0 51,-17 51,-49l0 -115c0,-8 -6,-14 -13,-14 -8,0 -14,6 -14,14l0 56c-5,-5 -15,-10 -27,-10z"/>
   <path id="18" class="fil6" d="M7803 1877c0,40 21,59 55,59 22,0 35,-10 40,-14 2,-2 4,-5 4,-9 0,-6 -5,-11 -12,-11 -3,0 -5,1 -8,3 -5,3 -13,7 -24,7 -16,0 -28,-8 -28,-26l60 0c15,0 15,-10 15,-19 0,-17 -8,-49 -49,-49 -33,0 -53,21 -53,59zm53 -36c16,0 23,11 23,23l-49 0c1,-15 12,-23 26,-23z"/>
   <path id="19" class="fil6" d="M7993 1758c-7,0 -13,6 -13,14l0 131c0,21 12,32 31,32 7,0 12,-6 12,-13 0,-6 -5,-12 -12,-12 -2,0 -5,-1 -5,-4l0 -134c0,-8 -6,-14 -13,-14z"/>
   <path id="20" class="fil6" d="M8082 1842c14,0 22,7 22,18l0 4 -32 0c-21,0 -40,12 -40,35 0,22 16,37 40,37 15,0 26,-4 32,-14 0,7 6,13 13,13 7,0 13,-6 13,-13l0 -63c0,-26 -18,-41 -48,-41 -21,0 -33,8 -40,16 -3,2 -4,5 -4,8 0,6 6,11 12,11 3,0 5,0 7,-2 6,-4 14,-9 25,-9zm-3 72c-14,0 -20,-6 -20,-15 0,-9 6,-14 16,-14l29 0 0 7c0,13 -12,22 -25,22z"/>
   <path id="21" class="fil6" d="M8193 1841c10,0 17,4 22,8 3,2 5,3 8,3 7,0 12,-5 12,-11 0,-4 -1,-6 -3,-8 -6,-8 -22,-15 -39,-15 -23,0 -41,11 -41,33 0,42 60,31 60,51 0,7 -7,10 -18,10 -12,0 -20,-5 -27,-10 -3,-2 -5,-3 -8,-3 -6,0 -11,5 -11,12 0,3 1,5 3,7 6,8 22,17 43,17 25,0 45,-11 45,-34 0,-41 -61,-32 -61,-51 0,-6 6,-9 15,-9z"/>
   <path id="22" class="fil6" d="M6872 2206c27,0 50,-11 61,-27 2,-2 3,-4 3,-7 0,-7 -6,-13 -13,-13 -4,0 -7,1 -11,5 -12,12 -21,16 -40,16 -32,0 -47,-17 -47,-60 0,-40 15,-60 47,-60 18,0 29,6 39,17 3,3 6,5 10,5 7,0 13,-6 13,-13 0,-3 -1,-5 -3,-8 -10,-15 -29,-27 -59,-27 -48,0 -76,28 -76,86 0,60 28,86 76,86z"/>
   <path id="23" class="fil6" d="M7058 2147c0,-40 -20,-59 -53,-59 -33,0 -54,19 -54,59 0,40 21,58 54,58 33,0 53,-18 53,-58zm-26 0c0,24 -10,36 -27,36 -18,0 -27,-12 -27,-36 0,-24 9,-37 27,-37 17,0 27,13 27,37z"/>
   <path id="24" class="fil6" d="M7135 2088c-16,0 -26,7 -31,14 0,-7 -6,-13 -13,-13 -7,0 -13,6 -13,13l0 89c0,8 5,13 13,13 8,0 13,-5 13,-13l0 -54c0,-14 6,-25 25,-25 16,0 21,9 21,23l0 56c0,8 6,13 13,13 8,0 14,-5 14,-13l0 -61c0,-21 -8,-42 -42,-42z"/>
   <path id="25" class="fil6" d="M7208 2091l-5 0c-6,0 -11,5 -11,11 0,6 5,11 11,11l5 0 0 58c0,19 14,33 36,33 6,0 11,-5 11,-11 0,-7 -5,-12 -11,-12 -5,0 -10,-3 -10,-9l0 -59 11 0c6,0 11,-5 11,-11 0,-6 -5,-11 -11,-11l-11 0 0 -20c0,-7 -6,-13 -13,-13 -7,0 -13,6 -13,13l0 20z"/>
   <path id="26" class="fil6" d="M7301 2102c0,-7 -6,-13 -13,-13 -7,0 -13,6 -13,13l0 89c0,7 6,13 13,13 7,0 13,-6 13,-13l0 -51c0,-16 10,-27 27,-27 6,0 12,-6 12,-13 0,-6 -6,-12 -12,-12 -11,0 -22,6 -27,16l0 -2z"/>
   <path id="27" class="fil6" d="M7395 2111c14,0 23,8 23,19l0 4 -32 0c-22,0 -40,12 -40,34 0,23 16,37 40,37 14,0 25,-3 32,-14 0,7 6,13 13,13 7,0 13,-6 13,-13l0 -62c0,-26 -18,-41 -49,-41 -21,0 -33,8 -40,15 -2,3 -3,6 -3,8 0,7 5,12 11,12 3,0 5,-1 8,-2 6,-5 14,-10 24,-10zm-2 72c-14,0 -21,-5 -21,-15 0,-8 6,-13 17,-13l29 0 0 6c0,14 -12,22 -25,22z"/>
   <path id="28" class="fil6" d="M7476 2091l-6 0c-6,0 -11,5 -11,11 0,6 5,11 11,11l6 0 0 58c0,19 13,33 35,33 6,0 11,-5 11,-11 0,-7 -5,-12 -11,-12 -5,0 -10,-3 -10,-9l0 -59 11 0c7,0 12,-5 12,-11 0,-6 -5,-11 -12,-11l-11 0 0 -20c0,-7 -5,-13 -12,-13 -8,0 -13,6 -13,13l0 20z"/>
   <path id="29" class="fil6" d="M7586 2111c14,0 22,8 22,19l0 4 -32 0c-21,0 -40,12 -40,34 0,23 16,37 40,37 15,0 26,-3 32,-14 0,7 6,13 13,13 7,0 13,-6 13,-13l0 -62c0,-26 -18,-41 -48,-41 -21,0 -34,8 -40,15 -3,3 -4,6 -4,8 0,7 5,12 12,12 3,0 5,-1 7,-2 6,-5 14,-10 25,-10zm-3 72c-14,0 -20,-5 -20,-15 0,-8 6,-13 16,-13l29 0 0 6c0,14 -12,22 -25,22z"/>
   <path id="30" class="fil6" d="M7652 2146c0,40 20,59 53,59 20,0 34,-8 39,-14 3,-2 5,-5 5,-9 0,-6 -6,-11 -12,-11 -3,0 -5,0 -7,2 -6,4 -13,10 -25,10 -17,0 -26,-13 -26,-37 0,-23 9,-36 26,-36 13,0 19,6 22,10 2,2 5,4 9,4 7,0 12,-5 12,-12 0,-3 -1,-5 -3,-7 -4,-6 -17,-17 -40,-17 -33,0 -53,19 -53,58z"/>
   <path id="31" class="fil6" d="M7795 2102c0,-7 -6,-13 -13,-13 -7,0 -13,6 -13,13l0 89c0,7 6,13 13,13 7,0 13,-6 13,-13l0 -89zm-13 -26c10,0 16,-6 16,-15 0,-12 -6,-17 -16,-17 -10,0 -16,5 -16,17 0,9 6,15 16,15z"/>
   <path id="32" class="fil6" d="M7922 2147c0,-40 -21,-59 -54,-59 -33,0 -53,19 -53,59 0,40 20,58 53,58 33,0 54,-18 54,-58zm-27 0c0,24 -9,36 -27,36 -17,0 -27,-12 -27,-36 0,-24 10,-37 27,-37 18,0 27,13 27,37z"/>
   <path id="33" class="fil6" d="M7999 2088c-17,0 -27,7 -31,14 0,-7 -6,-13 -14,-13 -7,0 -13,6 -13,13l0 89c0,8 6,13 13,13 8,0 14,-5 14,-13l0 -54c0,-14 6,-25 24,-25 16,0 22,9 22,23l0 56c0,8 5,13 13,13 7,0 13,-5 13,-13l0 -61c0,-21 -8,-42 -41,-42z"/>
   <path id="34" class="fil6" d="M8058 2146c0,41 21,59 55,59 23,0 36,-9 40,-13 2,-2 4,-5 4,-9 0,-6 -5,-12 -12,-12 -3,0 -5,1 -7,3 -6,4 -14,8 -25,8 -16,0 -28,-8 -28,-26l60 0c15,0 15,-11 15,-20 0,-16 -7,-48 -49,-48 -33,0 -53,21 -53,58zm53 -36c16,0 23,12 23,24l-49 0c2,-16 12,-24 26,-24z"/>
   <path id="35" class="fil6" d="M8218 2111c10,0 16,4 22,8 3,2 5,3 8,3 7,0 12,-5 12,-12 0,-3 -1,-5 -3,-7 -6,-9 -22,-15 -39,-15 -23,0 -41,11 -41,33 0,41 60,31 60,51 0,7 -7,9 -18,9 -12,0 -21,-4 -27,-10 -3,-2 -5,-3 -8,-3 -6,0 -11,6 -11,12 0,3 1,5 2,8 7,7 23,17 44,17 25,0 45,-12 45,-35 0,-40 -61,-32 -61,-50 0,-6 6,-9 15,-9z"/>
   <path id="36" class="fil6" d="M6871 2426c0,17 -10,27 -24,27 -17,0 -26,-13 -26,-37 0,-24 9,-36 26,-36 15,0 24,12 24,12l0 34zm-27 -69c-30,0 -49,19 -49,59 0,40 19,59 52,59 30,0 51,-16 51,-49l0 -115c0,-7 -6,-13 -14,-13 -7,0 -13,6 -13,13l0 56c-5,-5 -15,-10 -27,-10z"/>
   <path id="37" class="fil6" d="M6916 2416c0,41 21,59 55,59 22,0 35,-10 39,-13 3,-2 5,-6 5,-9 0,-7 -6,-12 -12,-12 -3,0 -5,1 -8,3 -6,4 -13,7 -24,7 -16,0 -29,-8 -29,-25l61 0c15,0 15,-11 15,-20 0,-17 -8,-49 -49,-49 -33,0 -53,21 -53,59zm53 -36c16,0 23,12 23,24l-49 0c1,-16 12,-24 26,-24z"/>
   <path id="38" class="fil6" d="M7051 2298c-8,0 -14,6 -14,13l0 132c0,20 12,31 31,31 7,0 13,-6 13,-12 0,-7 -6,-13 -13,-13 -1,0 -4,-1 -4,-4l0 -134c0,-7 -6,-13 -13,-13z"/>
   <path id="39" class="fil6" d="M7182 2333l62 0c7,0 13,-6 13,-13 0,-7 -6,-13 -13,-13l-76 0c-8,0 -15,7 -15,14l0 137c0,7 7,14 15,14l79 0c7,0 12,-6 12,-13 0,-7 -5,-13 -12,-13l-65 0 0 -45 46 0c7,0 12,-5 12,-12 0,-7 -5,-13 -12,-13l-46 0 0 -43z"/>
   <path id="40" class="fil6" d="M7318 2380c10,0 17,4 22,8 3,2 5,4 9,4 6,0 11,-6 11,-12 0,-4 -1,-6 -2,-7 -7,-9 -22,-16 -40,-16 -22,0 -41,11 -41,33 0,42 60,31 60,51 0,7 -7,10 -18,10 -12,0 -20,-5 -27,-10 -2,-2 -5,-3 -7,-3 -7,0 -12,5 -12,12 0,3 1,5 3,7 6,8 22,18 43,18 25,0 45,-12 45,-35 0,-41 -60,-32 -60,-50 0,-6 5,-10 14,-10z"/>
   <path id="41" class="fil6" d="M7391 2361l-5 0c-6,0 -11,5 -11,11 0,6 5,11 11,11l5 0 0 58c0,19 14,33 36,33 6,0 11,-5 11,-12 0,-6 -5,-11 -11,-11 -5,0 -10,-3 -10,-9l0 -59 11 0c6,0 11,-5 11,-11 0,-6 -5,-11 -11,-11l-11 0 0 -21c0,-7 -6,-13 -13,-13 -7,0 -13,6 -13,13l0 21z"/>
   <path id="42" class="fil6" d="M7501 2381c15,0 23,7 23,18l0 5 -32 0c-22,0 -40,11 -40,34 0,22 16,37 40,37 15,0 25,-4 32,-14 0,7 6,13 13,13 7,0 13,-6 13,-13l0 -63c0,-26 -18,-41 -49,-41 -21,0 -33,8 -40,16 -2,2 -3,5 -3,8 0,6 5,12 12,12 3,0 5,-1 7,-3 6,-4 14,-9 24,-9zm-2 72c-14,0 -21,-6 -21,-15 0,-9 6,-14 17,-14l29 0 0 7c0,14 -12,22 -25,22z"/>
   <path id="43" class="fil6" d="M7645 2426c0,17 -10,27 -25,27 -16,0 -26,-13 -26,-37 0,-24 10,-36 26,-36 15,0 25,12 25,12l0 34zm-27 -69c-31,0 -50,19 -50,59 0,40 19,59 52,59 30,0 51,-16 51,-49l0 -115c0,-7 -6,-13 -13,-13 -8,0 -13,6 -13,13l0 56c-5,-5 -16,-10 -27,-10z"/>
   <path id="44" class="fil6" d="M7796 2416c0,-40 -20,-59 -53,-59 -33,0 -54,19 -54,59 0,40 21,59 54,59 33,0 53,-19 53,-59zm-26 0c0,24 -10,37 -27,37 -18,0 -27,-13 -27,-37 0,-24 9,-36 27,-36 17,0 27,12 27,36z"/>
  </g>
 </g>
</svg>
