<?xml version="1.0" encoding="UTF-8"?>
<!DOCTYPE svg PUBLIC "-//W3C//DTD SVG 1.1//EN" "http://www.w3.org/Graphics/SVG/1.1/DTD/svg11.dtd">
<!-- Creator: CorelDRAW X8 -->
<svg xmlns="http://www.w3.org/2000/svg" xml:space="preserve" width="65.3965mm" height="28.068mm" version="1.1" style="shape-rendering:geometricPrecision; text-rendering:geometricPrecision; image-rendering:optimizeQuality; fill-rule:evenodd; clip-rule:evenodd"
viewBox="0 0 2278 978"
 xmlns:xlink="http://www.w3.org/1999/xlink">
 <defs>
  <style type="text/css">
   <![CDATA[
    .str0 {stroke:#C5C6C6;stroke-width:6.9656}
    .fil0 {fill:#FEFEFE}
    .fil8 {fill:#00A5CE}
    .fil2 {fill:#00BBE3}
    .fil1 {fill:#00BCE4}
    .fil3 {fill:#014D9D}
    .fil11 {fill:#014FA0}
    .fil9 {fill:#0194BB}
    .fil12 {fill:#01A6D1}
    .fil6 {fill:#52BBDB}
    .fil4 {fill:#668AC2}
    .fil10 {fill:#E75A02}
    .fil5 {fill:#EB7D25}
    .fil7 {fill:#F19C5B}
    .fil13 {fill:#014D9D;fill-rule:nonzero}
   ]]>
  </style>
 </defs>
 <g id="Capa_x0020_1">
  <metadata id="CorelCorpID_0Corel-Layer"/>
  <g id="_1921749468432">
   <path class="fil1" d="M1378 507l-17 0 0 -114 34 0c28,0 51,25 51,51 0,39 -28,63 -68,63zm-63 130l46 0 0 -85c176,0 167,-204 17,-204l-63 0 0 289z"/>
   <path class="fil1" d="M1712 393l28 0c20,0 25,18 28,34l-90 0c4,-15 16,-34 34,-34zm17 170c38,0 69,-10 85,-34 -4,-17 -9,-21 -17,-34 -31,21 -72,38 -104,8 -13,-11 -15,-15 -15,-36l141 0c0,-37 3,-60 -24,-89 -10,-11 -44,-30 -61,-30 -150,0 -142,215 -5,215z"/>
   <path class="fil1" d="M902 518c-100,0 -78,-125 -11,-125 21,0 35,5 47,16 41,39 15,109 -36,109zm-119 -68c0,39 10,57 30,78 46,49 121,44 162,6 76,-72 15,-186 -79,-186 -56,0 -113,47 -113,102z"/>
   <path class="fil1" d="M1038 405c0,86 106,60 95,100 -9,34 -69,0 -84,-10 -7,14 -13,20 -17,34 30,45 153,58 153,-34 0,-62 -89,-44 -102,-90 39,-26 45,-4 85,5 5,-21 9,-15 11,-39 -80,-43 -141,-16 -141,34z"/>
   <path class="fil2" d="M1525 484c0,53 31,79 85,79l0 -45c-46,-4 -34,-16 -34,-125l22 0 0 -45 -22 0 0 -56 -51 0 0 192z"/>
   <path class="fil2" d="M1859 501c0,38 40,61 79,62l0 -45c-30,-2 -34,-14 -34,-45l0 -181 -45 0 0 209z"/>
   <polygon class="fil2" points="1225,558 1270,558 1270,354 1225,354 "/>
   <path class="fil1" d="M1225 309c0,73 90,-17 17,-17 -13,0 -17,4 -17,17z"/>
   <path class="fil3" d="M694 564c-9,26 -50,57 -91,63 -23,3 -47,-1 -58,19 -23,44 52,83 127,1 18,-21 53,-67 50,-108 1,-17 5,-18 3,-39 -10,12 -4,13 -13,36 -4,9 -9,23 -18,28z"/>
   <path class="fil4" d="M694 564c9,-5 14,-19 18,-28 9,-23 3,-24 13,-36 2,21 -2,22 -3,39 22,-22 -10,-125 -59,-91 -36,24 16,60 12,130 17,0 10,-6 19,-14z"/>
   <path class="fil5" d="M539 350c9,10 29,12 49,34 12,13 24,40 40,47 48,22 65,-62 3,-84 -25,6 -65,-15 -92,3z"/>
   <path class="fil6" d="M405 630c5,11 15,23 22,32 5,7 5,7 12,13 9,9 10,6 8,10 13,13 42,14 59,5 15,-9 24,-35 9,-51 -13,-12 -39,-10 -61,-14 -25,-5 -36,-17 -53,-22l4 27z"/>
   <path class="fil7" d="M425 350c-55,33 -32,95 8,83 21,-7 27,-36 59,-62l24 -15c0,-1 1,-1 1,-2l-18 -9c-1,-1 -2,-1 -2,-1l-17 -1c-7,1 -13,2 -20,3 -21,2 -28,9 -35,4z"/>
   <path class="fil8" d="M339 501c1,0 2,1 2,2 0,1 1,2 1,2 7,15 1,12 16,42 8,16 19,29 25,40l6 -12c-4,-71 37,-83 22,-117 -9,-20 -65,-33 -72,43z"/>
   <path class="fil9" d="M447 685c2,-4 1,-1 -8,-10 -7,-6 -7,-6 -12,-13 -7,-9 -17,-21 -22,-32 -6,-20 -13,-28 -16,-55l-6 12c-6,-11 -17,-24 -25,-40 -15,-30 -9,-27 -16,-42 0,0 -1,-1 -1,-2 0,-1 -1,-2 -2,-2 -2,46 10,83 30,115 12,21 53,65 78,69z"/>
   <path class="fil10" d="M425 350c7,5 14,-2 35,-4 7,-1 13,-2 20,-3l17 1c0,0 1,0 2,1l40 5c27,-18 67,3 92,-3 -23,-18 -66,-29 -104,-28 -49,2 -68,16 -102,31z"/>
   <path class="fil11" d="M615 534c-44,12 -25,73 18,62 37,-9 23,-74 -18,-62z"/>
   <path class="fil5" d="M522 377c-40,13 -21,74 21,61 36,-10 22,-75 -21,-61z"/>
   <path class="fil12" d="M432 535c-8,2 -14,5 -19,13 -4,7 -5,19 -2,29 6,15 25,24 43,18 35,-14 20,-74 -22,-60z"/>
   <path class="fil13" d="M866 613l11 0c1,0 2,-1 2,-2 0,-1 -1,-2 -2,-2l-13 0c-2,0 -3,1 -3,2l0 24c0,2 1,3 3,3l14 0c1,0 2,-1 2,-3 0,-1 -1,-2 -2,-2l-12 0 0 -8 8 0c1,0 2,-1 2,-2 0,-1 -1,-2 -2,-2l-8 0 0 -8z"/>
   <path id="1" class="fil13" d="M889 633l0 -22c0,-1 -2,-3 -3,-3 -1,0 -2,2 -2,3l0 24c0,2 1,3 2,3l13 0c1,0 2,-1 2,-3 0,-1 -1,-2 -2,-2l-10 0z"/>
   <path id="2" class="fil13" d="M922 627l8 10c1,1 1,1 2,1 1,0 3,-1 3,-2 0,-1 -1,-1 -1,-2l-6 -8c4,0 6,-4 6,-8 0,-5 -3,-9 -9,-9l-8 0c-1,0 -3,1 -3,2l0 25c0,1 2,2 3,2 1,0 2,-1 2,-2l0 -9 3 0zm3 -14c3,0 4,2 4,5 0,2 -1,4 -4,4l-6 0 0 -9 6 0z"/>
   <path id="3" class="fil13" d="M944 613l10 0c2,0 3,-1 3,-2 0,-1 -1,-2 -3,-2l-13 0c-1,0 -2,1 -2,2l0 24c0,2 1,3 2,3l14 0c1,0 2,-1 2,-3 0,-1 -1,-2 -2,-2l-11 0 0 -8 8 0c1,0 2,-1 2,-2 0,-1 -1,-2 -2,-2l-8 0 0 -8z"/>
   <path id="4" class="fil13" d="M981 631c-2,2 -4,3 -8,3 -5,0 -8,-3 -8,-11 0,-7 3,-10 8,-10 4,0 5,1 7,3 1,0 1,1 2,1 1,0 2,-2 2,-3 0,0 0,-1 0,-1 -2,-3 -5,-5 -11,-5 -8,0 -13,5 -13,15 0,11 5,15 13,15 5,0 10,-2 12,-4 0,-1 0,-2 0,-3l0 -7c0,-1 -1,-2 -2,-2l-8 0c-2,0 -3,1 -3,2 0,2 1,3 3,3l6 0 0 4z"/>
   <path id="5" class="fil13" d="M1001 638c9,0 11,-5 11,-10l0 -17c0,-1 -1,-3 -3,-3 -1,0 -2,2 -2,3l0 17c0,3 -1,6 -6,6 -5,0 -6,-3 -6,-6l0 -17c0,-1 -1,-3 -2,-3 -2,0 -3,2 -3,3l0 17c0,5 2,10 11,10z"/>
   <path id="6" class="fil13" d="M1022 633l0 -22c0,-1 -1,-3 -3,-3 -1,0 -2,2 -2,3l0 24c0,2 1,3 2,3l13 0c1,0 2,-1 2,-3 0,-1 -1,-2 -2,-2l-10 0z"/>
   <path id="7" class="fil13" d="M1052 626l-7 0 4 -9 3 9zm2 4l3 6c0,1 1,2 2,2 1,0 2,-1 2,-2 0,-1 0,-1 0,-1l-10 -25c0,-1 -1,-2 -2,-2 -2,0 -2,1 -3,2l-10 25c0,0 0,0 0,1 0,1 1,2 3,2 1,0 2,-1 2,-2l3 -6 10 0z"/>
   <path id="8" class="fil13" d="M1070 613l3 0c6,0 9,3 9,10 0,8 -3,10 -9,10l-3 0 0 -20zm-3 -4c-1,0 -2,1 -2,2l0 24c0,2 1,3 2,3l6 0c9,0 14,-4 14,-15 0,-10 -5,-14 -14,-14l-6 0z"/>
   <path id="9" class="fil13" d="M1104 638c8,0 13,-5 13,-15 0,-10 -5,-15 -13,-15 -9,0 -14,5 -14,15 0,10 5,15 14,15zm0 -25c5,0 8,3 8,10 0,7 -3,11 -8,11 -6,0 -9,-4 -9,-11 0,-7 3,-10 9,-10z"/>
   <path id="10" class="fil13" d="M1129 627l8 10c0,1 1,1 2,1 1,0 2,-1 2,-2 0,-1 0,-1 0,-2l-7 -8c5,0 7,-4 7,-8 0,-5 -3,-9 -9,-9l-8 0c-2,0 -3,1 -3,2l0 25c0,1 1,2 3,2 1,0 2,-1 2,-2l0 -9 3 0zm3 -14c3,0 4,2 4,5 0,2 -1,4 -4,4l-6 0 0 -9 6 0z"/>
   <path id="11" class="fil13" d="M1160 613l3 0c6,0 9,3 9,10 0,8 -3,10 -9,10l-3 0 0 -20zm-2 -4c-2,0 -3,1 -3,2l0 24c0,2 1,3 3,3l5 0c9,0 14,-4 14,-15 0,-10 -5,-14 -14,-14l-5 0z"/>
   <path id="12" class="fil13" d="M1186 613l11 0c2,0 3,-1 3,-2 0,-1 -1,-2 -3,-2l-13 0c-1,0 -3,1 -3,2l0 24c0,2 2,3 3,3l14 0c1,0 2,-1 2,-3 0,-1 -1,-2 -2,-2l-12 0 0 -8 9 0c1,0 2,-1 2,-2 0,-1 -1,-2 -2,-2l-9 0 0 -8z"/>
   <path id="13" class="fil13" d="M1219 633l0 -22c0,-1 -1,-3 -3,-3 -1,0 -2,2 -2,3l0 24c0,2 1,3 2,3l13 0c1,0 2,-1 2,-3 0,-1 -1,-2 -2,-2l-10 0z"/>
   <path id="14" class="fil13" d="M1249 626l-7 0 4 -9 3 9zm2 4l2 6c1,1 2,2 3,2 1,0 2,-1 2,-2 0,-1 0,-1 0,-1l-10 -25c0,-1 -1,-2 -2,-2 -2,0 -2,1 -3,2l-10 25c0,0 0,0 0,1 0,1 1,2 2,2 2,0 2,-1 3,-2l2 -6 11 0z"/>
   <path id="15" class="fil13" d="M1278 615c0,1 1,1 1,1 2,0 3,-1 3,-2 0,-1 0,-1 -1,-2 -1,-2 -5,-4 -9,-4 -7,0 -10,4 -10,8 0,10 15,8 15,14 0,2 -2,4 -5,4 -3,0 -6,-2 -8,-4 0,0 0,0 -1,0 -2,0 -3,1 -3,2 0,0 0,1 1,1 1,3 5,5 11,5 7,0 10,-3 10,-8 0,-11 -15,-8 -15,-14 0,-2 1,-3 5,-3 2,0 4,1 6,2l0 0z"/>
   <path class="fil13" d="M1417 612c1,0 2,-1 2,-2 0,-2 -1,-3 -2,-3l-18 0c-2,0 -3,1 -3,3 0,1 1,2 3,2l6 0 0 22c0,2 1,3 3,3 1,0 2,-1 2,-3l0 -22 7 0z"/>
   <path id="1" class="fil13" d="M1427 612l11 0c2,0 3,-1 3,-2 0,-2 -1,-3 -3,-3l-13 0c-1,0 -3,1 -3,3l0 24c0,1 2,2 3,2l14 0c1,0 2,-1 2,-2 0,-1 -1,-2 -2,-2l-12 0 0 -8 9 0c1,0 2,-1 2,-2 0,-1 -1,-2 -2,-2l-9 0 0 -8z"/>
   <path id="2" class="fil13" d="M1450 632l0 -22c0,-2 -1,-3 -3,-3 -1,0 -2,1 -2,3l0 24c0,1 1,2 2,2l13 0c2,0 3,-1 3,-2 0,-1 -1,-2 -3,-2l-10 0z"/>
   <path id="3" class="fil13" d="M1471 612l11 0c1,0 2,-1 2,-2 0,-2 -1,-3 -2,-3l-13 0c-2,0 -3,1 -3,3l0 24c0,1 1,2 3,2l13 0c2,0 3,-1 3,-2 0,-1 -1,-2 -3,-2l-11 0 0 -8 8 0c1,0 2,-1 2,-2 0,-1 -1,-2 -2,-2l-8 0 0 -8z"/>
   <path id="4" class="fil13" d="M1501 637c5,0 9,-2 11,-5 0,0 0,0 0,-1 0,-1 -1,-2 -2,-2 -1,0 -1,0 -2,1 -2,2 -4,2 -7,2 -6,0 -8,-3 -8,-10 0,-7 2,-11 8,-11 3,0 5,1 7,3 0,1 1,1 1,1 2,0 3,-1 3,-2 0,-1 0,-1 -1,-2 -1,-2 -5,-4 -10,-4 -9,0 -14,5 -14,15 0,10 5,15 14,15z"/>
   <path id="5" class="fil13" d="M1529 637c8,0 13,-5 13,-15 0,-10 -5,-15 -13,-15 -9,0 -14,5 -14,15 0,10 5,15 14,15zm0 -26c5,0 8,4 8,11 0,7 -3,10 -8,10 -6,0 -9,-3 -9,-10 0,-7 3,-11 9,-11z"/>
   <path id="6" class="fil13" d="M1560 632c1,0 2,-1 2,-1l7 -12 0 15c0,2 1,3 2,3 2,0 3,-1 3,-3l0 -25c0,-1 -1,-2 -3,-2 -1,0 -2,1 -2,1l-9 17 -9 -17c-1,0 -1,-1 -2,-1 -2,0 -3,1 -3,2l0 25c0,2 1,3 3,3 1,0 2,-1 2,-3l0 -15 7 12c0,0 1,1 2,1z"/>
   <path id="7" class="fil13" d="M1590 637c8,0 10,-5 10,-10l0 -17c0,-2 -1,-3 -2,-3 -1,0 -3,1 -3,3l0 17c0,3 0,6 -5,6 -5,0 -6,-3 -6,-6l0 -17c0,-2 -1,-3 -3,-3 -1,0 -2,1 -2,3l0 17c0,5 2,10 11,10z"/>
   <path id="8" class="fil13" d="M1625 607c-1,0 -3,1 -3,2l0 18 -12 -19c-1,-1 -1,-1 -2,-1 -2,0 -3,1 -3,2l0 25c0,2 1,3 3,3 1,0 2,-1 2,-3l0 -17 13 19c0,0 1,1 2,1 1,0 2,-1 2,-3l0 -25c0,-1 -1,-2 -2,-2z"/>
   <path id="9" class="fil13" d="M1637 610c0,-2 -1,-3 -2,-3 -2,0 -3,1 -3,3l0 24c0,2 1,3 3,3 1,0 2,-1 2,-3l0 -24z"/>
   <path id="10" class="fil13" d="M1655 637c4,0 8,-2 10,-5 1,0 1,0 1,-1 0,-1 -1,-2 -2,-2 -1,0 -2,0 -2,1 -2,2 -4,2 -7,2 -6,0 -9,-3 -9,-10 0,-7 3,-11 9,-11 3,0 5,1 7,3 0,1 1,1 1,1 2,0 3,-1 3,-2 0,-1 -1,-1 -1,-2 -2,-2 -5,-4 -10,-4 -9,0 -14,5 -14,15 0,10 5,15 14,15z"/>
   <path id="11" class="fil13" d="M1684 624l-7 0 4 -9 3 9zm2 5l2 6c1,1 2,2 3,2 1,0 2,-1 2,-3 0,0 0,0 0,-1l-10 -24c0,-1 -1,-2 -2,-2 -2,0 -2,1 -3,2l-10 24c0,1 0,1 0,1 0,2 1,3 2,3 2,0 2,-1 3,-2l2 -6 11 0z"/>
   <path id="12" class="fil13" d="M1708 637c4,0 8,-2 10,-5 1,0 1,0 1,-1 0,-1 -1,-2 -3,-2 0,0 -1,0 -1,1 -2,2 -4,2 -7,2 -6,0 -9,-3 -9,-10 0,-7 3,-11 9,-11 3,0 5,1 6,3 1,1 2,1 2,1 1,0 3,-1 3,-2 0,-1 -1,-1 -1,-2 -2,-2 -5,-4 -10,-4 -9,0 -14,5 -14,15 0,10 5,15 14,15z"/>
   <path id="13" class="fil13" d="M1728 610c0,-2 -1,-3 -3,-3 -1,0 -2,1 -2,3l0 24c0,2 1,3 2,3 2,0 3,-1 3,-3l0 -24z"/>
   <path id="14" class="fil13" d="M1746 637c8,0 13,-5 13,-15 0,-10 -5,-15 -13,-15 -9,0 -14,5 -14,15 0,10 5,15 14,15zm0 -26c5,0 8,4 8,11 0,7 -3,10 -8,10 -6,0 -9,-3 -9,-10 0,-7 3,-11 9,-11z"/>
   <path id="15" class="fil13" d="M1783 607c-2,0 -3,1 -3,2l0 18 -13 -19c0,-1 -1,-1 -2,-1 -1,0 -2,1 -2,2l0 25c0,2 1,3 2,3 2,0 3,-1 3,-3l0 -17 13 19c0,0 1,1 2,1 1,0 2,-1 2,-3l0 -25c0,-1 -1,-2 -2,-2z"/>
   <path id="16" class="fil13" d="M1795 612l11 0c1,0 2,-1 2,-2 0,-2 -1,-3 -2,-3l-13 0c-2,0 -3,1 -3,3l0 24c0,1 1,2 3,2l13 0c2,0 3,-1 3,-2 0,-1 -1,-2 -3,-2l-11 0 0 -8 8 0c1,0 2,-1 2,-2 0,-1 -1,-2 -2,-2l-8 0 0 -8z"/>
   <path id="17" class="fil13" d="M1828 614c1,0 2,0 2,0 2,0 3,-1 3,-2 0,0 -1,-1 -1,-1 -2,-3 -5,-4 -10,-4 -6,0 -9,3 -9,8 0,10 15,7 15,13 0,3 -2,4 -6,4 -3,0 -5,-1 -7,-3 0,0 -1,-1 -2,-1 -1,0 -2,1 -2,2 0,1 0,1 1,2 1,2 5,5 10,5 8,0 11,-3 11,-9 0,-10 -15,-8 -15,-13 0,-2 1,-4 4,-4 3,0 5,1 6,3l0 0z"/>
  </g>
 </g>
</svg>
