<?xml version="1.0" encoding="UTF-8"?>
<!DOCTYPE svg PUBLIC "-//W3C//DTD SVG 1.1//EN" "http://www.w3.org/Graphics/SVG/1.1/DTD/svg11.dtd">
<!-- Creator: CorelDRAW 2018 (64 Bit) -->
<svg xmlns="http://www.w3.org/2000/svg" xml:space="preserve" width="65.3965mm" height="28.068mm" version="1.1" style="shape-rendering:geometricPrecision; text-rendering:geometricPrecision; image-rendering:optimizeQuality; fill-rule:evenodd; clip-rule:evenodd"
viewBox="0 0 3292.44 1413.11"
 xmlns:xlink="http://www.w3.org/1999/xlink">
 <defs>
  <style type="text/css">
   <![CDATA[
    .str0 {stroke:#BDBFC1;stroke-width:10.07;stroke-miterlimit:22.9256}
    .fil0 {fill:#FEFEFE}
    .fil1 {fill:#0086CE}
    .fil4 {fill:#22A2DC}
    .fil3 {fill:#2F9F3E}
    .fil5 {fill:#5AAD55}
    .fil6 {fill:#5DAD56}
    .fil7 {fill:#89B985}
    .fil8 {fill:#B3D8AB}
    .fil2 {fill:#FEFEFE}
   ]]>
  </style>
 </defs>
 <g id="Capa_x0020_1">
  <metadata id="CorelCorpID_0Corel-Layer"/>
  <g id="_2819777904256">
   <path class="fil1" d="M1449.89 513.08c-16.87,-16.85 -55.15,-33.3 -86.94,-38.36 -69.47,-11.06 -132.12,24.31 -161.53,81.78 -35.46,69.28 -9.1,126.98 57.05,162.99 21.73,11.84 65.3,31 66.75,56.97 2.01,36.4 -35.92,53.9 -73.99,46.5 -30.26,-5.88 -61.51,-29.39 -76.45,-46.42 -7.68,6.4 -52.15,71.01 -56.99,81.49 11.56,17.87 53.16,40.79 81.14,48.62 36.27,10.16 75.6,10.74 113.16,1.2 67.89,-17.25 113.37,-76.35 113.39,-143.99 0.01,-78.85 -82.91,-102.42 -125.44,-129.84 -45.7,-29.46 -17.22,-63.32 7.29,-69.96 40.63,-11.02 71.55,11.97 95.95,26.48l46.62 -77.47z"/>
   <path class="fil1" d="M2172.19 719c36.29,-9.88 63.31,18.05 60.89,53.1 -2.1,30.56 -23.22,58.76 -50.64,64.33 -79.4,16.11 -80.49,-98.3 -10.25,-117.43zm119.7 187.95c4.27,-2.46 4.1,-2.53 5.6,-14.15 0.64,-4.97 1.4,-11.12 2.16,-16.61l31.87 -228.01 -81.48 0.17c-0.28,0.51 -0.5,1.22 -0.63,1.61 -0.13,0.39 -0.45,1.15 -0.6,1.63 -0.15,0.48 -0.38,1.11 -0.52,1.65 -0.15,0.54 -0.3,1.1 -0.44,1.67l-2.39 16.53c-16.59,-14.75 -29.68,-27.83 -62.65,-30.71 -30.02,-2.63 -53.26,6.17 -73.89,17.57 -32.89,18.18 -64.66,61.81 -73.59,110.63 -17.4,95.16 43.69,161.08 121.96,142.92 31.34,-7.26 39.75,-18.46 59.59,-32.55l-3.17 27.65 78.19 0z"/>
   <path class="fil1" d="M1857.7 648.15l-82.61 0.15 -35.71 258.63c17,0.07 70.12,3 82.59,-1.73 6.96,-38.06 10.49,-76.98 16.28,-115.87 3.12,-20.98 2.9,-35.87 13.53,-51.16 23.91,-34.41 67.83,-37.86 79.24,-2.62 5.75,17.76 0.31,37.84 -2.28,56.59 -4.88,35.44 -14.04,80.4 -15.63,114.78 16.41,0.08 70.76,2.23 82.73,-1.49 5.72,-36.68 10.22,-72.81 15.18,-108.57 4.44,-32 15.71,-78.54 3.9,-107.64 -17.33,-42.7 -79.6,-61.55 -123.85,-39.55 -20.94,10.42 -29.78,21.27 -36.65,24.35l3.27 -25.89z"/>
   <path class="fil1" d="M1654.6 649.59c-6.39,38.22 -10.69,76.07 -15.96,114.05 -5.14,36.98 -11.83,73.81 -50.03,77.49 -79.26,7.64 -34.18,-96.95 -27.18,-193l-83.14 0.81c-12.02,138.24 -81.88,272.77 108.38,265.47 68.12,-2.62 105.39,-31.61 123.04,-86.09 6.37,-19.68 26.78,-157.16 27.57,-180.11 -16.29,-0.18 -70.68,-2.25 -82.68,1.37z"/>
   <path class="fil1" d="M2364.95 818.87c-4.5,3.8 -39.86,53.83 -42.13,62.96 16.88,11.06 24.95,20.53 51.3,27.95 52.52,14.79 144.17,2.54 159.74,-75.6 17.63,-88.44 -75.58,-87.59 -90.2,-104.97 -7.95,-9.45 -1.87,-21.39 10.86,-24.49 28.46,-6.94 46.29,9.7 65.92,14.27l33.32 -57.44c-32.38,-32.56 -192.79,-39.56 -193.75,73.02 -0.23,27.01 12.68,41.2 26.58,51.75 17.72,13.45 32.02,15.83 50.55,26.78 20.55,12.13 10.12,38.3 -23.75,34.36 -20.83,-2.43 -36.98,-19.3 -48.45,-28.58z"/>
   <path class="fil1" d="M2736.04 719.04c7.44,-18.91 24.8,-39.07 32.94,-57.72 -32.05,-32.74 -195.17,-38.98 -193.32,75.39 0.85,52.15 52.97,60.84 78.4,77.14 19.84,12.72 6.59,38.66 -26.96,33.33 -20.65,-3.28 -36.55,-21.24 -46.74,-28.14 -7.5,6.78 -14.83,20.58 -21.46,29.76 -5.43,7.53 -18.09,23.6 -20.55,32.98 17.63,11.77 25.15,20.95 52.93,28.45 52.41,14.15 142.65,1.39 158.08,-76.07 18.18,-91.35 -81.53,-86.84 -91.8,-107.61 -6.39,-12.94 4.08,-20.16 14.19,-22.19 28.14,-5.66 44.73,9.89 64.29,14.68z"/>
   <path class="fil2" d="M2172.19 719c-70.24,19.13 -69.15,133.53 10.25,117.43 27.42,-5.56 48.53,-33.76 50.64,-64.33 2.42,-35.05 -24.59,-62.98 -60.89,-53.1z"/>
   <path class="fil3" d="M852.71 415.6c-19.89,19.99 -43.6,35.52 -31.98,51.65 57.84,80.26 144.83,113.53 101.12,239.33 -41.53,119.42 -201.05,155.64 -287.71,62.36 -41.53,-44.7 -56.9,-93.77 -40.07,-170.91l-4.17 6.91c-4.89,10.91 -10.81,36.56 -12.46,48.13 -35.38,248.64 189.91,330.49 401.74,222.86 27.84,-18.09 64.52,-82.29 77.98,-119.84 37.06,-103.41 15.05,-227.59 -54.43,-307.58 -24.69,-28.42 -48.19,-50.46 -73.95,-76.7 -24.24,-24.7 -56.91,24.53 -76.08,43.8z"/>
   <path class="fil4" d="M979.19 875.93c-211.84,107.63 -437.12,25.79 -401.74,-222.86 1.65,-11.57 7.56,-37.22 12.46,-48.13l4.17 -6.91c24.85,-86.53 189.71,-217.7 257.13,-284.48 10.2,-16.35 -11.48,-30.6 -30.25,-49.48 -14.76,-14.86 -28.34,-27.86 -43,-42.8 -23.69,-24.16 -30.76,-7.16 -48.44,10.45 -77.93,77.72 -209.9,189.98 -255.52,280.18 -101.48,200.69 48.87,452.9 276.56,454.53 78.28,0.56 150.6,-22.76 207.95,-70.45 8.45,-7.03 16.04,-11.58 20.68,-20.05z"/>
   <path class="fil5" d="M1895.7 1109.87c3,-4.14 -4.83,-1.69 5.85,-4.1 -2.19,11.03 -1.58,5.51 -3.83,7.99 0.04,15.62 -6.82,29.38 -22.97,22.2 -3.22,-17.66 10.13,-18.99 20.95,-26.09zm-13.57 -13.2c-6.5,-8.7 -9.21,-19.83 -1.83,-32.16 6.06,-10.13 14.36,-12.26 29.02,-11.34 -2.76,23.04 -1.92,46.68 -27.19,43.5zm-25.38 46.04c28.08,19.18 49.98,6.12 57.55,-19.84 4.59,-15.73 12.96,-62 14.05,-79.43 -23.68,-5.02 -45.71,-8.3 -59.98,9.17 -13.17,16.13 -16.51,44.46 6.42,54 -1.84,1.99 -1.66,1.76 -4.49,3.91 -8.52,6.47 -15.75,5.18 -13.55,32.19z"/>
   <path class="fil5" d="M1025.23 1137.03c-3.48,-16.72 13.44,-23.6 24.55,-29.59 -1.38,19.57 -5.3,34.16 -24.55,29.59zm4.57 -41.57c-10.11,-24.56 1.22,-45.22 29.76,-41.94 -2.25,22.47 -3.57,50.31 -29.76,41.94zm-4.97 11.85c-0.38,0.37 -0.99,0.84 -1.22,1.03 -10.7,8.55 -25.35,21.33 -13.94,36.69 9.48,12.75 36.89,5.9 45.23,-3.3 12.97,-14.31 21.54,-72.82 23.55,-98.66 -35.46,-6.13 -73.12,-2.04 -69.67,41.84 1.03,13.15 6.66,16.49 16.05,22.4z"/>
   <path class="fil5" d="M1348.66 1054c-0.61,9.6 -3.14,25.31 -5.45,35.09 -2.89,12.21 -16.1,19.63 -24.79,9.72 -10.21,-11.66 -0.86,-49.57 30.24,-44.81zm25.23 -40.16l-17.42 -0.07 -5.21 26.86c-79.72,-12.9 -59.14,112.93 -11.38,67.27 5.84,6.99 5.91,9.6 16.93,4.23l17.08 -98.3z"/>
   <path class="fil5" d="M2441.89 1101.08c-0.53,-7.03 2.97,-26.16 4.86,-34.26 3.06,-13.07 15.33,-20.76 24.33,-9.69 8.47,10.44 2.01,53.01 -29.19,43.95zm14.19 -87.51l-17.73 0.92 -15.56 92.41c0.03,0.32 0.33,1.87 0.36,1.56 0.03,-0.31 0.22,1.05 0.43,1.54 9.75,6.92 29.63,8.09 42.81,3.49 30.61,-10.69 47.85,-88.29 -15.37,-69.77l5.05 -30.15z"/>
   <path class="fil5" d="M1595.79 1053.41c-0.44,8.68 -3.75,30.2 -5.86,37.22 -8.05,26.86 -41.79,8.58 -22.28,-24.79 5.59,-9.57 12.65,-13.04 28.14,-12.43zm25.18 -39.38l-17.38 0.44 -4.95 25.73c-30.65,-1.91 -47.41,7.78 -52.99,35.47 -8.03,39.78 24.87,51.8 41.41,31.57l4.34 5.39c4.16,2.56 7.85,1.72 12.21,1.62l17.36 -100.22z"/>
   <path class="fil5" d="M2158.63 1053.81c41.88,-4.88 19.9,40.64 13.77,45.37 -2.68,2.07 -24.69,13.87 -20.12,-12.83 1.63,-9.54 3.92,-22.84 6.35,-32.53zm-12.29 63.14l2.43 -4.52c4.33,-0.63 3.53,-1.8 3.53,2.11 30.44,6.23 47.86,-14.12 48.28,-44.04 0.53,-37.49 -29.76,-33.26 -58.31,-26.14l-17.1 100.07 17.17 -0.78 3.98 -26.7z"/>
   <path class="fil5" d="M758.25 1033.97l40.37 -1.39 1.91 -14.39 -58.12 -0.1 -15.91 96.19 58.21 -0.21 2.2 -16.04 -40.3 -0.85 4.27 -24.03c6.71,-0.21 12.99,0.06 19.54,-0.02l15.73 -2.58 1.49 -13.17 -33.66 -0.66 4.27 -22.75z"/>
   <path class="fil5" d="M2364.22 1102.24c-10.91,-20.15 -2.81,-56.82 28.95,-48.1 -1.92,15.68 -4.78,35.01 -10.37,46.86l-18.58 1.24zm47.97 -58.79c-33.37,-6.92 -57.41,-4.12 -67.42,24.43 -12.52,35.7 10.52,63.55 39.98,40.15 5.64,8.52 2.44,6.17 16.14,5.87l11.3 -70.45z"/>
   <path class="fil5" d="M2059.14 1100.64c-21.76,5.77 -27.28,-2.99 -21.63,-26.24 3.78,-15.55 13.74,-25.03 32,-20.52 -1.55,15.9 -4.33,36.16 -10.37,46.76zm29.83 -56.03c-73.06,-27.53 -87.55,62.65 -53.89,70.83 12.7,3.08 14.46,-1.78 22.2,-3.92 7.8,-2.15 3.22,-0.29 9.27,1.2 5.34,1.32 4.52,1.23 10.96,1.27l11.45 -69.38z"/>
   <path class="fil5" d="M1239.39 1101.75c-5.45,-9.46 -6.16,-22.21 -1.16,-34.25 5.36,-12.88 12.32,-16.44 30.17,-14.39 -2.49,23.32 -1.25,53.28 -29.01,48.64zm48.14 -57.87c-34.47,-8.3 -64.03,-2.4 -69.76,32.56 -9.33,56.95 39.29,35 39.32,34.99 9.74,-1.58 3.15,4.07 19.26,1.65l11.18 -69.2z"/>
   <path class="fil5" d="M1828.84 1054.31c-1.31,9.39 -3.25,24.89 -5.6,33.87 -2.81,10.77 -15.29,21.66 -24.94,11.66 -8.39,-8.7 -3.58,-56.43 30.53,-45.53zm18.89 -10.82c-33.35,-6.35 -56.54,-5.46 -67.1,24.29 -13.74,38.71 13.82,63.58 39.63,39.93 5.38,7.31 4.47,6.46 16.21,6.06l11.26 -70.28z"/>
   <path class="fil5" d="M2256.68 1053.72c10.43,17.61 -0.33,57.36 -20.77,47.83 -10.09,-4.71 -11.53,-52.59 20.77,-47.83zm20.4 31.51c15.33,-59.61 -51.06,-58.61 -63.23,-15.71 -16.87,59.44 51.75,60.37 63.23,15.71z"/>
   <path class="fil5" d="M1425.9 1080.33c-6.61,31.69 -37.05,32.17 -28.74,-6.17 6.28,-28.96 36.74,-32.19 28.74,6.17zm17.89 2.45c14.13,-56.1 -51.58,-56.47 -63.73,-13.17 -6.31,22.48 -1.24,45.21 23,46.41 23.78,1.18 35.64,-13.04 40.73,-33.24z"/>
   <path class="fil5" d="M957.79 1072.18c4.01,-14.01 7.61,-21.38 25.82,-18.86 2.09,16.63 -10.45,19.54 -25.82,18.86zm14.02 11.1c6.16,-1 10.3,-1.67 15.51,-4.18 36.8,-17.8 2.06,-59.35 -32.9,-30.55 -11.62,9.57 -23.22,35.49 -13.13,54.43 8.95,16.8 38.37,17.43 52.66,4.34 -4.69,-17.94 -6.33,-7.3 -20.57,-5.33 -13.28,1.83 -15.78,-3.38 -17.71,-14.29l16.15 -4.41z"/>
   <path class="fil5" d="M1645.34 1072.83c9.79,-45.03 56.37,-3.39 0,0zm5.33 11.81c6.87,-1.81 14.12,-0.87 23.48,-5.41 37.07,-17.99 3.25,-58.74 -31.47,-31.67 -11.69,9.11 -24.69,36.79 -13.65,57.05 8.34,15.3 37.56,14.74 52.82,2.59l-3.94 -10.28c-14.74,3.71 -30.49,14.33 -34.91,-9.24l7.67 -3.05z"/>
   <path class="fil5" d="M2568.57 1072.49c2.82,-13.31 9.98,-23.37 25.66,-18.21 3.08,16.4 -11.5,17.85 -25.66,18.21zm-2.07 13.07c22.03,-3.19 47.97,-4.87 46.78,-29.81 -1.08,-22.53 -33.85,-19.09 -47.54,-7.36 -10.62,9.1 -23.76,33.13 -14.45,53.57 7.84,17.22 39.53,19.05 53.77,5.19l-4.99 -9.82c-17.23,3.61 -30.93,13 -33.58,-11.77z"/>
   <path class="fil5" d="M1142.62 1041.41c-6.05,17.98 -3.19,57.69 -22.37,60.48 -22.92,3.34 -4.42,-31.7 -4.24,-60.52l-16.63 0.13c-3.58,17.16 -12.55,51.83 -6.56,66.8 10.94,12.34 29.66,9.39 37.46,-1.48l6.4 6.63c4.12,1.79 6.57,0.94 10.56,0.74l11.34 -72.87 -15.96 0.09z"/>
   <path class="fil5" d="M1980.04 1108.05l1.47 -2.63c7.11,8.19 -1.27,5.67 12.74,7.22l4.97 -10.97 9.43 -60.36 -16.51 0.23c-7.1,26.1 -2.22,66.48 -32.82,59.11 -3.54,-17.65 6.1,-39.96 6.89,-58.54 -17.21,-2.12 -18.73,-8.56 -25.57,46.31 -3.95,31.7 22.69,34.45 39.39,19.62z"/>
   <path class="fil5" d="M2324.24 1013.53l-16.05 0.72c-5.65,8.95 -17.19,82.15 -14.16,95.14 5.29,4.4 8.31,7.01 18.81,6.82 9,-0.17 13.64,-2.2 18.62,-6.49l-2.77 -7.79 -16.24 -1.13c-4.05,-10.02 1.39,-31.29 4.66,-42.85 3.25,-1.86 -0.4,-0.67 6.1,-2.07l13.57 -0.92 1.6 -11.42 -18.48 -2.21 4.32 -27.8z"/>
   <path class="fil5" d="M1731.42 1102.4c-14,-6.42 -20.59,16.67 -11.27,-36.06 3.18,-17.97 6.88,-35.02 9.26,-52.43l-17.73 0.05c-13.87,82.35 -31.06,111.43 21.44,99.07l-1.71 -10.63z"/>
   <path class="fil5" d="M823.86 1100.31c-4.39,-10.93 9.54,-70.02 12.62,-86.22l-18.02 -0.07c-17.48,90.36 -26.8,110.54 21.52,98.96l-2.16 -11.89c-8.43,0.36 -6.17,2.42 -13.96,-0.78z"/>
   <path class="fil5" d="M2537.85 1100.66c-11.37,1.66 -16.59,5.99 -15.32,-9.39l13.79 -77.17 -17.82 -0.24c-10.18,79.16 -35.57,111.59 21.35,99.09l-2 -12.29z"/>
   <path class="fil5" d="M1189.37 1099.95c-1.31,-18.13 10,-64.69 13.24,-85.99l-18.13 -0.17c-6.71,72.77 -38.44,111.52 21.7,99.33l-1.76 -10.71c-7.38,-3.43 -4.47,2.83 -15.04,-2.46z"/>
   <path class="fil5" d="M900.1 1114.29c12.01,-47.96 1.09,-55.12 27.13,-59.03 10.04,-1.51 3.2,5.69 9.6,-4.64 1.8,-2.91 1.9,-6.06 2.52,-9.34 -14.07,-3.6 -10.68,-3.05 -22.72,1.73 -14.19,5.62 -1.53,-1.54 -21.03,-1.71l-11.93 72.95 16.44 0.04z"/>
   <path class="fil6" d="M1472.99 1113.47c3.2,-14.12 4.75,-35.38 9.02,-47.51 9.52,-27.01 24.78,7.73 29.19,-24.79 -13.81,-3.45 -21.14,-2.2 -27.28,7.25 -5.64,-7.73 -3.96,-7.02 -16.11,-6.91l-12.17 72.65 17.34 -0.7z"/>
   <path class="fil7" d="M1980.04 1108.05l4.43 7.11 13.66 -1.61 1.09 -11.87 -4.97 10.97c-14.01,-1.55 -5.63,0.96 -12.74,-7.22l-1.47 2.63z"/>
   <path class="fil8" d="M1897.72 1113.76c2.25,-2.49 1.64,3.04 3.83,-7.99 -10.68,2.42 -2.85,-0.04 -5.85,4.1l2.02 3.89z"/>
   <path class="fil8" d="M2146.33 1116.96c3.15,-2.16 1.26,-0.61 5.97,-2.41 0,-3.91 0.8,-2.74 -3.53,-2.11l-2.43 4.52z"/>
  </g>
 </g>
</svg>
