<?xml version="1.0" standalone="no"?>
<!DOCTYPE svg PUBLIC "-//W3C//DTD SVG 20010904//EN"
 "http://www.w3.org/TR/2001/REC-SVG-20010904/DTD/svg10.dtd">
<svg version="1.0" xmlns="http://www.w3.org/2000/svg"
 width="576.000000pt" height="460.000000pt" viewBox="0 0 576.000000 460.000000"
 preserveAspectRatio="xMidYMid meet">

<g transform="translate(0.000000,460.000000) scale(0.100000,-0.100000)"
fill="#000000" stroke="none">
<path d="M1880 3950 c0 -5 -8 -10 -17 -11 -15 0 -15 -2 2 -9 35 -15 55 -11 55
10 0 13 -7 20 -20 20 -11 0 -20 -4 -20 -10z"/>
<path d="M2590 3940 c0 -15 7 -20 25 -20 18 0 25 5 25 20 0 15 -7 20 -25 20
-18 0 -25 -5 -25 -20z"/>
<path d="M3100 3940 c0 -15 7 -20 25 -20 18 0 25 5 25 20 0 15 -7 20 -25 20
-18 0 -25 -5 -25 -20z"/>
<path d="M3840 3940 c0 -21 20 -25 55 -10 17 7 17 9 3 9 -10 1 -18 6 -18 11 0
6 -9 10 -20 10 -13 0 -20 -7 -20 -20z"/>
<path d="M1815 3941 c-6 -11 9 -23 19 -14 9 9 7 23 -3 23 -6 0 -12 -4 -16 -9z"/>
<path d="M3050 3936 c0 -9 7 -12 21 -9 16 4 17 8 7 14 -19 13 -28 11 -28 -5z"/>
<path d="M3922 3941 c2 -7 7 -12 11 -12 12 1 9 15 -3 20 -7 2 -11 -2 -8 -8z"/>
<path d="M1750 3904 c0 -8 5 -12 10 -9 6 3 10 10 10 16 0 5 -4 9 -10 9 -5 0
-10 -7 -10 -16z"/>
<path d="M2980 3910 c0 -5 5 -10 10 -10 6 0 10 5 10 10 0 6 -4 10 -10 10 -5 0
-10 -4 -10 -10z"/>
<path d="M3992 3911 c2 -7 7 -12 11 -12 12 1 9 15 -3 20 -7 2 -11 -2 -8 -8z"/>
<path d="M1708 3883 c-22 -3 -28 -10 -28 -29 0 -19 5 -24 24 -24 19 0 25 6 28
30 3 17 4 29 4 29 -1 -1 -13 -4 -28 -6z"/>
<path d="M2920 3865 c0 -18 5 -25 20 -25 11 0 20 4 20 9 0 5 3 16 6 25 5 12 0
16 -20 16 -21 0 -26 -5 -26 -25z"/>
<path d="M4028 3858 c3 -22 10 -28 28 -28 19 0 24 5 24 24 0 18 -6 25 -28 28
-26 4 -28 2 -24 -24z"/>
<path d="M120 3390 c0 -15 7 -20 25 -20 18 0 25 5 25 20 0 15 -7 20 -25 20
-18 0 -25 -5 -25 -20z"/>
<path d="M940 3391 c0 -11 6 -21 13 -24 20 -7 37 4 37 24 0 14 -7 19 -25 19
-18 0 -25 -5 -25 -19z"/>
<path d="M1220 3390 c0 -13 7 -20 20 -20 13 0 20 7 20 20 0 13 -7 20 -20 20
-13 0 -20 -7 -20 -20z"/>
<path d="M4500 3390 c0 -13 7 -20 20 -20 13 0 20 7 20 20 0 13 -7 20 -20 20
-13 0 -20 -7 -20 -20z"/>
<path d="M4770 3391 c0 -11 6 -21 13 -24 20 -7 37 4 37 24 0 14 -7 19 -25 19
-18 0 -25 -5 -25 -19z"/>
<path d="M5590 3390 c0 -15 7 -20 25 -20 18 0 25 5 25 20 0 15 -7 20 -25 20
-18 0 -25 -5 -25 -20z"/>
<path d="M1890 3298 c0 -12 -10 -33 -22 -47 -21 -24 -21 -24 8 2 16 15 38 27
47 27 10 0 17 8 17 20 0 15 -7 20 -25 20 -19 0 -25 -5 -25 -22z"/>
<path d="M3282 3260 c-7 -11 -23 -20 -37 -20 -18 0 -25 -5 -25 -20 0 -15 7
-20 25 -20 18 0 25 5 25 19 0 21 23 45 33 34 4 -3 7 1 7 10 0 23 -12 21 -28
-3z"/>
<path d="M3380 3265 c0 -8 5 -15 10 -15 6 0 10 7 10 15 0 8 -4 15 -10 15 -5 0
-10 -7 -10 -15z"/>
<path d="M3417 3217 c3 -16 13 -27 27 -29 19 -4 22 -1 18 19 -2 13 -8 23 -12
23 -5 0 -15 3 -23 6 -11 4 -13 -1 -10 -19z"/>
<path d="M1809 3203 c-13 -16 -12 -17 4 -4 16 13 21 21 13 21 -2 0 -10 -8 -17
-17z"/>
<path d="M3475 3161 c-7 -12 12 -24 25 -16 11 7 4 25 -10 25 -5 0 -11 -4 -15
-9z"/>
<path d="M2078 3095 c-5 -22 -2 -25 23 -25 24 0 29 4 29 25 0 20 -5 25 -24 25
-17 0 -25 -7 -28 -25z"/>
<path d="M1676 3086 c-15 -13 -24 -26 -19 -29 6 -4 20 7 32 23 26 36 25 36
-13 6z"/>
<path d="M3472 3069 c2 -6 8 -10 13 -10 5 0 11 4 13 10 2 6 -4 11 -13 11 -9 0
-15 -5 -13 -11z"/>
<path d="M3433 3042 c-17 -2 -23 -10 -23 -28 0 -35 36 -33 43 4 3 15 5 27 4
27 -1 1 -12 -1 -24 -3z"/>
<path d="M1950 2960 c0 -5 5 -10 10 -10 6 0 10 5 10 10 0 6 -4 10 -10 10 -5 0
-10 -4 -10 -10z"/>
<path d="M3190 2810 c0 -13 7 -20 20 -20 13 0 20 7 20 20 0 13 -7 20 -20 20
-13 0 -20 -7 -20 -20z"/>
<path d="M1950 2750 c0 -5 5 -10 10 -10 6 0 10 5 10 10 0 6 -4 10 -10 10 -5 0
-10 -4 -10 -10z"/>
<path d="M1640 2680 c0 -5 5 -10 10 -10 6 0 10 5 10 10 0 6 -4 10 -10 10 -5 0
-10 -4 -10 -10z"/>
<path d="M2058 2618 c3 -21 10 -28 27 -28 18 0 21 4 18 24 -3 15 -13 26 -27
28 -19 4 -21 1 -18 -24z"/>
<path d="M2980 2625 c0 -20 5 -25 25 -25 20 0 25 5 25 25 0 20 -5 25 -25 25
-20 0 -25 -5 -25 -25z"/>
<path d="M2538 2595 c-5 -22 -2 -25 23 -25 24 0 29 4 29 25 0 20 -5 25 -24 25
-17 0 -25 -7 -28 -25z"/>
<path d="M1720 2596 c0 -2 8 -10 18 -17 15 -13 16 -12 3 4 -13 16 -21 21 -21
13z"/>
<path d="M2180 2495 c0 -8 5 -15 10 -15 6 0 10 7 10 15 0 8 -4 15 -10 15 -5 0
-10 -7 -10 -15z"/>
<path d="M1820 2495 c0 -4 9 -18 20 -32 11 -14 20 -32 20 -39 0 -8 5 -14 12
-14 7 0 33 -19 58 -42 l45 -43 -38 40 c-20 23 -37 51 -37 63 0 15 -6 22 -19
22 -11 0 -29 12 -40 26 -12 15 -21 23 -21 19z"/>
<path d="M2410 2466 c0 -9 5 -16 10 -16 6 0 10 4 10 9 0 6 -4 13 -10 16 -5 3
-10 -1 -10 -9z"/>
<path d="M2730 2401 c0 -5 -3 -16 -6 -24 -4 -11 1 -13 20 -10 32 6 37 43 6 43
-11 0 -20 -4 -20 -9z"/>
<path d="M2674 2328 l-29 -33 33 29 c30 28 37 36 29 36 -2 0 -16 -15 -33 -32z"/>
<path d="M2050 2236 c0 -2 8 -10 18 -17 15 -13 16 -12 3 4 -13 16 -21 21 -21
13z"/>
<path d="M2539 2203 c-13 -16 -12 -17 4 -4 9 7 17 15 17 17 0 8 -8 3 -21 -13z"/>
<path d="M2090 2186 c0 -9 7 -16 16 -16 9 0 14 5 12 12 -6 18 -28 21 -28 4z"/>
<path d="M2482 2159 c2 -6 8 -10 13 -10 5 0 11 4 13 10 2 6 -4 11 -13 11 -9 0
-15 -5 -13 -11z"/>
<path d="M4430 1806 c0 -18 7 -25 30 -29 21 -5 31 -14 36 -32 4 -16 13 -25 25
-25 29 0 24 37 -6 44 -18 5 -27 15 -32 36 -4 23 -11 30 -29 30 -19 0 -24 -5
-24 -24z"/>
<path d="M523 1755 c-10 -11 -9 -15 8 -20 11 -4 32 -4 45 -1 22 6 23 8 10 21
-18 19 -47 19 -63 0z"/>
<path d="M5173 1755 c-10 -11 -9 -15 8 -20 11 -4 32 -4 45 -1 22 6 23 8 10 21
-18 19 -47 19 -63 0z"/>
<path d="M472 1751 c4 -13 18 -16 19 -4 0 4 -5 9 -11 12 -7 2 -11 -2 -8 -8z"/>
<path d="M615 1751 c-6 -11 9 -23 19 -14 9 9 7 23 -3 23 -6 0 -12 -4 -16 -9z"/>
<path d="M5122 1751 c4 -13 18 -16 19 -4 0 4 -5 9 -11 12 -7 2 -11 -2 -8 -8z"/>
<path d="M5265 1751 c-6 -11 9 -23 19 -14 9 9 7 23 -3 23 -6 0 -12 -4 -16 -9z"/>
<path d="M405 1691 c-6 -11 9 -23 19 -14 9 9 7 23 -3 23 -6 0 -12 -4 -16 -9z"/>
<path d="M680 1685 c0 -8 5 -15 10 -15 6 0 10 7 10 15 0 8 -4 15 -10 15 -5 0
-10 -7 -10 -15z"/>
<path d="M5060 1685 c0 -8 5 -15 10 -15 6 0 10 7 10 15 0 8 -4 15 -10 15 -5 0
-10 -7 -10 -15z"/>
<path d="M5330 1685 c0 -9 5 -15 11 -13 6 2 11 8 11 13 0 5 -5 11 -11 13 -6 2
-11 -4 -11 -13z"/>
<path d="M403 1633 c-7 -3 -13 -13 -13 -23 0 -19 17 -30 38 -23 6 3 12 13 12
23 0 19 -17 30 -37 23z"/>
<path d="M683 1633 c-17 -6 -16 -40 1 -46 17 -7 26 1 26 24 0 21 -10 28 -27
22z"/>
<path d="M5054 1625 c-4 -8 -4 -22 0 -30 7 -20 36 -8 36 15 0 23 -29 35 -36
15z"/>
<path d="M5333 1633 c-7 -3 -13 -13 -13 -23 0 -19 17 -30 38 -23 6 3 12 13 12
23 0 19 -17 30 -37 23z"/>
<path d="M4260 1591 c0 -12 9 -20 23 -23 20 -4 23 -1 19 19 -5 29 -42 32 -42
4z"/>
<path d="M405 1541 c-6 -11 9 -23 19 -14 9 9 7 23 -3 23 -6 0 -12 -4 -16 -9z"/>
<path d="M682 1541 c2 -7 7 -12 11 -12 12 1 9 15 -3 20 -7 2 -11 -2 -8 -8z"/>
<path d="M5055 1541 c-6 -11 9 -23 19 -14 9 9 7 23 -3 23 -6 0 -12 -4 -16 -9z"/>
<path d="M5332 1541 c2 -7 7 -12 11 -12 12 1 9 15 -3 20 -7 2 -11 -2 -8 -8z"/>
<path d="M4390 1496 c0 -9 5 -16 10 -16 6 0 10 4 10 9 0 6 -4 13 -10 16 -5 3
-10 -1 -10 -9z"/>
<path d="M530 1489 c0 -5 -12 -9 -27 -7 -16 2 -28 -1 -28 -7 0 -5 12 -9 28 -7
15 2 27 -2 27 -7 0 -6 11 -11 25 -11 14 0 25 5 25 11 0 7 11 9 30 6 22 -5 30
-3 30 8 0 11 -8 13 -30 9 -19 -4 -30 -2 -30 5 0 6 -11 11 -25 11 -14 0 -25 -5
-25 -11z"/>
<path d="M940 1479 c0 -30 22 -50 38 -33 7 7 12 22 12 34 0 15 -6 20 -25 20
-19 0 -25 -5 -25 -21z"/>
<path d="M1220 1480 c0 -13 7 -20 20 -20 13 0 20 7 20 20 0 13 -7 20 -20 20
-13 0 -20 -7 -20 -20z"/>
<path d="M1370 1481 c0 -12 9 -20 25 -23 21 -4 25 -1 25 18 0 19 -5 24 -25 24
-18 0 -25 -5 -25 -19z"/>
<path d="M4770 1479 c0 -30 22 -50 38 -33 7 7 12 22 12 34 0 15 -6 20 -25 20
-19 0 -25 -5 -25 -21z"/>
<path d="M5180 1489 c0 -7 -11 -9 -30 -5 -22 4 -30 2 -30 -9 0 -11 8 -13 30
-8 19 3 30 1 30 -6 0 -6 11 -11 25 -11 14 0 25 5 25 11 0 5 12 9 28 7 15 -2
27 2 27 7 0 6 -12 9 -27 7 -16 -2 -28 2 -28 7 0 6 -11 11 -25 11 -14 0 -25 -5
-25 -11z"/>
<path d="M956 1331 c-4 -5 -2 -12 3 -15 5 -4 12 -2 15 3 4 5 2 12 -3 15 -5 4
-12 2 -15 -3z"/>
<path d="M4786 1331 c-4 -5 -2 -12 3 -15 5 -4 12 -2 15 3 4 5 2 12 -3 15 -5 4
-12 2 -15 -3z"/>
<path d="M4405 1320 c3 -5 10 -10 16 -10 5 0 9 5 9 10 0 6 -7 10 -16 10 -8 0
-12 -4 -9 -10z"/>
<path d="M4323 1233 c-30 -6 -33 -53 -4 -53 13 0 20 9 23 30 3 17 4 29 4 29
-1 -1 -11 -4 -23 -6z"/>
<path d="M138 1223 c-29 -7 -23 -43 7 -43 20 0 25 5 25 25 0 25 -1 26 -32 18z"/>
<path d="M670 1205 c0 -18 5 -25 20 -25 11 0 20 4 20 9 0 5 8 12 18 14 16 4
16 5 0 6 -10 0 -18 6 -18 11 0 6 -9 10 -20 10 -15 0 -20 -7 -20 -25z"/>
<path d="M5047 1214 c-11 -11 5 -34 24 -34 12 0 19 7 19 20 0 19 -28 28 -43
14z"/>
<path d="M5590 1200 c0 -15 7 -20 25 -20 18 0 25 5 25 20 0 15 -7 20 -25 20
-18 0 -25 -5 -25 -20z"/>
<path d="M830 1200 c0 -5 5 -10 10 -10 6 0 10 5 10 10 0 6 -4 10 -10 10 -5 0
-10 -4 -10 -10z"/>
<path d="M4910 1200 c0 -5 5 -10 10 -10 6 0 10 5 10 10 0 6 -4 10 -10 10 -5 0
-10 -4 -10 -10z"/>
<path d="M4218 1102 c-4 -25 -1 -28 19 -24 16 3 23 11 23 28 0 36 -36 32 -42
-4z"/>
<path d="M3790 1100 c0 -13 7 -20 20 -20 13 0 20 -7 20 -20 0 -15 7 -20 25
-20 20 0 25 5 25 25 0 20 -5 25 -25 25 -16 0 -25 6 -25 15 0 8 -9 15 -20 15
-13 0 -20 -7 -20 -20z"/>
<path d="M4136 991 c-4 -5 -2 -12 3 -15 5 -4 12 -2 15 3 4 5 2 12 -3 15 -5 4
-12 2 -15 -3z"/>
<path d="M3960 970 c0 -5 5 -10 10 -10 6 0 10 5 10 10 0 6 -4 10 -10 10 -5 0
-10 -4 -10 -10z"/>
<path d="M2910 855 c0 -21 5 -25 31 -25 24 0 30 3 25 16 -3 9 -6 20 -6 25 0 5
-11 9 -25 9 -20 0 -25 -5 -25 -25z"/>
<path d="M2150 780 c0 -11 4 -20 9 -20 5 0 16 -3 24 -6 11 -4 13 1 10 20 -6
32 -43 37 -43 6z"/>
<path d="M3518 767 c-4 -20 -1 -23 19 -19 29 5 32 42 4 42 -12 0 -20 -9 -23
-23z"/>
<path d="M3070 725 c0 -20 5 -25 25 -25 20 0 25 5 25 25 0 20 -5 25 -25 25
-20 0 -25 -5 -25 -25z"/>
<path d="M3420 635 c0 -8 5 -15 10 -15 6 0 10 7 10 15 0 8 -4 15 -10 15 -5 0
-10 -7 -10 -15z"/>
<path d="M2740 620 c0 -5 5 -10 10 -10 6 0 10 5 10 10 0 6 -4 10 -10 10 -5 0
-10 -4 -10 -10z"/>
<path d="M3220 616 c0 -9 5 -16 10 -16 6 0 10 4 10 9 0 6 -4 13 -10 16 -5 3
-10 -1 -10 -9z"/>
<path d="M2392 591 c2 -7 7 -12 11 -12 12 1 9 15 -3 20 -7 2 -11 -2 -8 -8z"/>
</g>
</svg>
