<?xml version="1.0" encoding="UTF-8"?>
<!DOCTYPE svg PUBLIC "-//W3C//DTD SVG 1.1//EN" "http://www.w3.org/Graphics/SVG/1.1/DTD/svg11.dtd">
<!-- Creator: CorelDRAW X7 -->
<svg xmlns="http://www.w3.org/2000/svg" xml:space="preserve" width="261px" height="294px" version="1.1" style="shape-rendering:geometricPrecision; text-rendering:geometricPrecision; image-rendering:optimizeQuality; fill-rule:evenodd; clip-rule:evenodd"
viewBox="0 0 206 233"
 xmlns:xlink="http://www.w3.org/1999/xlink">
 <defs>
  <style type="text/css">
   <![CDATA[
    .str2 {stroke:#FF5A00;stroke-width:4.67046}
    .str1 {stroke:#FF5A00;stroke-width:14.0114}
    .str0 {stroke:#707070;stroke-width:1.86818}
    .fil2 {fill:none}
    .fil0 {fill:#707070}
    .fil1 {fill:#707070}
   ]]>
  </style>
 </defs>
 <g id="Capa_x0020_1">
  <metadata id="CorelCorpID_0Corel-Layer"/>
  <path class="fil0" d="M159 53l12 21 -17 -4 5 -17zm-15 165l-10 -5 -2 7 -120 -39 54 -168 86 27c-3,12 -10,23 -9,35l33 12 -15 47 12 1c2,-12 16,-44 14,-52 0,-4 -20,-44 -23,-47 -7,-10 -96,-35 -105,-36 -9,28 -59,167 -59,187 9,6 127,44 140,46l4 -15z"/>
  <rect class="fil1 str0" transform="matrix(0.827413 0.269077 -0.262482 0.848205 46.9434 123.003)" width="97.3799" height="7.54279"/>
  <rect class="fil1 str0" transform="matrix(0.883027 0.302381 -0.280124 0.953187 37.2302 148.96)" width="97.3799" height="7.54279"/>
  <circle class="fil2 str1" cx="161" cy="177" r="39"/>
  <polyline class="fil2 str2" points="147,172 164,165 160,157 180,163 171,183 167,173 148,182 145,173 137,194 155,202 151,192 167,185 "/>
  <rect class="fil1 str0" transform="matrix(0.953187 0.302381 -0.302381 0.953187 63.1902 70.1886)" width="97.3799" height="7.54279"/>
  <rect class="fil1 str0" transform="matrix(0.953187 0.302381 -0.302381 0.953187 55.7707 92.802)" width="97.3799" height="7.54279"/>
 </g>
</svg>
