<?xml version="1.0" encoding="UTF-8"?>
<!DOCTYPE svg PUBLIC "-//W3C//DTD SVG 1.1//EN" "http://www.w3.org/Graphics/SVG/1.1/DTD/svg11.dtd">
<!-- Creator: CorelDRAW X7 -->
<svg xmlns="http://www.w3.org/2000/svg" xml:space="preserve" width="212px" height="262px" version="1.1" style="shape-rendering:geometricPrecision; text-rendering:geometricPrecision; image-rendering:optimizeQuality; fill-rule:evenodd; clip-rule:evenodd"
viewBox="0 0 149 184"
 xmlns:xlink="http://www.w3.org/1999/xlink">
 <defs>
  <style type="text/css">
   <![CDATA[
    .str0 {stroke:#FEFEFE;stroke-width:0.6311}
    .str1 {stroke:#FF5A00;stroke-width:0.6311}
    .fil0 {fill:#FEFEFE}
    .fil1 {fill:#FF5A00}
   ]]>
  </style>
 </defs>
 <g id="Capa_x0020_1">
  <metadata id="CorelCorpID_0Corel-Layer"/>
  <path class="fil0 str0" d="M34 113c3,-4 5,-8 6,-13 4,0 9,2 12,4 -7,5 -10,4 -12,17l-32 0c-6,-13 3,-21 15,-22 1,4 3,12 5,14 1,-15 -1,-9 -1,-14 6,1 0,2 5,1 4,0 -1,-1 4,-1 0,6 -4,0 -2,14zm-17 -34c3,-2 3,1 3,-3 1,-4 0,-12 8,-14 12,-1 14,5 15,15l2 2c0,3 0,4 -2,6 -2,2 -1,2 -3,5 -4,8 -13,9 -18,-1 -2,-5 -5,-4 -5,-10zm57 104c0,-10 2,-47 0,-55 -2,0 -30,2 -31,0 -5,-14 10,-23 21,-25 1,6 3,15 6,18 2,-19 -1,-11 0,-16l0 -2c2,1 1,0 2,2l3 0c0,-2 -1,-2 0,-3l-1 0c-7,-1 -9,-5 -11,-10 -2,-5 -3,-2 -5,-7 -2,-5 0,-5 3,-6l0 -8c2,-2 6,-3 9,-3 1,0 1,0 2,0 1,-1 1,-1 2,-1l1 -2 -4 0c-4,1 -6,2 -10,2 -3,0 -2,0 -6,-3 4,-9 3,-8 7,-9 10,-2 8,-4 11,-5l2 -1 0 -49 -74 23c-1,6 -1,49 -1,58 0,22 -1,35 8,52 7,13 17,22 28,30 7,6 28,18 38,20z"/>
  <path class="fil0 str0" d="M100 105c3,-1 6,-4 11,-3 -2,2 -4,4 -3,7 2,0 3,-1 4,-2 1,2 6,8 8,10 3,-2 5,-6 8,-9l5 2c0,-5 0,-5 -2,-8 17,1 12,17 9,18l-31 1c-5,-7 0,-8 -9,-16zm17 -8c-5,-2 -9,0 -11,-5 -4,-10 -3,-27 13,-28 10,-1 15,6 17,14 0,4 0,11 -1,14 -1,5 -6,4 -10,4 -1,4 0,4 2,6 -2,4 -4,6 -6,8 -3,-1 -4,-3 -6,-6 -2,-4 2,-2 2,-7zm-42 -48c3,2 3,3 6,5 2,0 3,1 5,1 6,1 3,0 7,9 -6,7 -8,0 -18,1l-1 2c6,1 9,1 14,3l0 9c3,1 5,1 3,6 -2,4 -3,2 -5,7 -2,5 -5,9 -11,10 -1,1 0,1 0,3 5,0 -1,-1 4,-2 2,8 -5,0 -1,17 5,-6 4,-10 8,-16 8,0 16,7 19,15 1,1 3,7 1,9 -3,1 -27,0 -32,0 2,8 0,45 0,55 11,-2 32,-14 40,-19 11,-8 20,-17 27,-30 10,-17 7,-31 7,-52 0,-19 1,-39 0,-59l-73 -23 0 49z"/>
  <path class="fil1 str1" d="M117 97c0,5 -4,3 -2,7 2,3 3,5 6,6 2,-2 4,-4 6,-8 -2,-2 -3,-2 -2,-6 4,0 9,1 10,-4 1,-3 1,-10 1,-14 -2,-8 -7,-15 -17,-14 -16,1 -17,18 -13,28 2,5 6,3 11,5z"/>
  <path class="fil1 str1" d="M34 113c-2,-14 2,-8 2,-14 -5,0 0,1 -4,1 -5,1 1,0 -5,-1 0,5 2,-1 1,14 -2,-2 -4,-10 -5,-14 -12,1 -21,9 -15,22l32 0c2,-13 5,-12 12,-17 -3,-2 -8,-4 -12,-4 -1,5 -3,9 -6,13z"/>
  <path class="fil1 str1" d="M17 79c0,6 3,5 5,10 5,10 14,9 18,1 2,-3 1,-3 3,-5 2,-2 2,-3 2,-6l-2 -2c-1,-10 -3,-16 -15,-15 -8,2 -7,10 -8,14 0,4 0,1 -3,3z"/>
  <path class="fil1 str1" d="M74 128c1,-2 2,-19 0,-21 -1,-2 -1,-1 -2,-2 -1,-2 0,-1 -2,-2l0 2c-1,5 2,-3 0,16 -3,-3 -5,-12 -6,-18 -11,2 -26,11 -21,25 1,2 29,0 31,0z"/>
  <path class="fil1 str1" d="M75 105l-3 0c1,1 1,0 2,2 2,2 1,19 0,21 5,0 29,1 32,0 2,-2 0,-8 -1,-9 -3,-8 -11,-15 -19,-15 -4,6 -3,10 -8,16 -4,-17 3,-9 1,-17 -5,1 1,2 -4,2z"/>
  <path class="fil1 str1" d="M100 105c9,8 4,9 9,16l31 -1c3,-1 8,-17 -9,-18 2,3 2,3 2,8l-5 -2c-3,3 -5,7 -8,9 -2,-2 -7,-8 -8,-10 -1,1 -2,2 -4,2 -1,-3 1,-5 3,-7 -5,-1 -8,2 -11,3z"/>
  <path class="fil1 str1" d="M74 102c2,-5 1,-27 1,-33l-5 -1c-3,0 -7,1 -9,3l0 8c-3,1 -5,1 -3,6 2,5 3,2 5,7 2,5 4,9 11,10z"/>
  <path class="fil1 str1" d="M74 102l1 0c6,-1 9,-5 11,-10 2,-5 3,-3 5,-7 2,-5 0,-5 -3,-6l0 -9c-5,-2 -8,-2 -14,-3 -1,0 -1,0 -2,1 -1,0 -1,0 -2,0l5 1c0,6 1,28 -1,33z"/>
  <path class="fil1 str1" d="M71 65c1,-1 1,-1 4,-1 0,-7 1,-13 -2,-14 -3,1 -1,3 -11,5 -4,1 -3,0 -7,9 4,3 3,3 6,3 4,0 6,-1 10,-2z"/>
  <path class="fil1 str1" d="M71 65l4 0c10,-1 12,6 18,-1 -4,-9 -1,-8 -7,-9 -2,0 -3,-1 -5,-1 -3,-2 -3,-3 -6,-5l-2 1c3,1 2,7 2,14 -3,0 -3,0 -4,1z"/>
 </g>
</svg>
