<?xml version="1.0" encoding="UTF-8"?>
<!DOCTYPE svg PUBLIC "-//W3C//DTD SVG 1.1//EN" "http://www.w3.org/Graphics/SVG/1.1/DTD/svg11.dtd">
<!-- Creator: CorelDRAW X7 -->
<svg xmlns="http://www.w3.org/2000/svg" xml:space="preserve" width="239px" height="273px" version="1.1" style="shape-rendering:geometricPrecision; text-rendering:geometricPrecision; image-rendering:optimizeQuality; fill-rule:evenodd; clip-rule:evenodd"
viewBox="0 0 182 208"
 xmlns:xlink="http://www.w3.org/1999/xlink">
 <defs>
  <style type="text/css">
   <![CDATA[
    .str0 {stroke:#FF5A00;stroke-width:0.68553}
    .fil1 {fill:#FEFEFE}
    .fil3 {fill:#E2E2E1}
    .fil2 {fill:#F6F6F6}
    .fil0 {fill:#FF5A00}
   ]]>
  </style>
 </defs>
 <g id="Capa_x0020_1">
  <metadata id="CorelCorpID_0Corel-Layer"/>
  <path class="fil0 str0" d="M57 131c4,-4 5,-8 7,-14 4,0 10,2 13,4 -8,6 -11,5 -13,19l-36 0c-5,-14 5,-23 17,-24 1,4 3,13 6,16 1,-17 -1,-10 -1,-16 6,1 -1,2 5,1 5,0 -2,-1 4,-1 0,7 -4,0 -2,15zm-18 -36c3,-3 3,0 3,-4 1,-5 0,-13 9,-15 13,-2 15,5 15,16l3 2c0,4 0,4 -2,7 -2,2 -1,2 -3,5 -5,9 -14,10 -19,-1 -3,-5 -6,-5 -6,-10zm62 113c0,-12 2,-52 0,-60 -2,0 -33,1 -34,-1 -6,-14 11,-25 23,-26 1,5 3,15 7,19 1,-20 -1,-12 -1,-17l1 -2c2,1 0,-1 1,1l3 1c0,-3 0,-2 1,-4l-1 0c-8,-1 -10,-6 -13,-11 -2,-5 -3,-2 -5,-7 -2,-5 0,-5 3,-7l1 -9c2,-2 6,-3 10,-2 0,-1 0,-1 1,-1 2,0 2,0 3,0l0 -3 -4 0c-4,1 -6,2 -10,2 -4,0 -3,1 -7,-3 5,-10 3,-9 8,-10 10,-2 8,-4 12,-5l1 -1 0 -53 -80 25c-1,6 0,53 0,63 0,23 -2,37 8,56 8,14 18,24 30,33 8,6 30,19 42,22z"/>
  <path class="fil0 str0" d="M129 123c3,-2 6,-5 11,-4 -2,2 -4,4 -3,8 2,0 4,-1 5,-2 1,2 7,9 9,11 3,-3 5,-8 9,-11l4 3c1,-5 1,-6 -2,-9 19,1 13,19 10,20l-34 1c-4,-8 0,-9 -9,-17zm18 -9c-5,-3 -10,0 -12,-6 -4,-11 -3,-29 15,-30 11,-1 16,6 18,15 0,4 0,12 -1,16 -1,4 -6,4 -11,4 -1,4 0,4 2,7 -2,3 -4,6 -7,8 -2,-2 -4,-3 -6,-6 -2,-5 2,-3 2,-8zm-46 -52c4,2 4,3 7,5 2,0 3,1 5,1 7,1 4,0 8,10 -6,7 -8,0 -20,1l0 3c6,0 9,1 15,3l0 9c3,2 6,2 3,7 -2,4 -3,1 -5,7 -2,6 -6,10 -12,11 -1,2 -1,1 -1,4 6,-1 -1,-2 5,-2 2,8 -5,-1 -1,18 6,-7 4,-11 8,-18 9,1 19,8 22,16 0,2 2,8 0,10 -3,1 -29,1 -34,1 2,8 0,48 0,60 12,-2 35,-16 43,-21 12,-10 22,-19 30,-33 10,-19 7,-34 7,-56 0,-22 1,-43 0,-64l-80 -25 0 53z"/>
  <path class="fil1" d="M147 114c0,5 -4,3 -2,8 2,3 4,4 6,6 3,-2 5,-5 7,-8 -2,-3 -3,-3 -2,-7 5,0 10,0 11,-4 1,-4 1,-12 1,-16 -2,-9 -7,-16 -18,-15 -18,1 -19,19 -15,30 2,6 7,3 12,6z"/>
  <path class="fil2" d="M57 131c-2,-15 2,-8 2,-15 -6,0 1,1 -4,1 -6,1 1,0 -5,-1 0,6 2,-1 1,16 -3,-3 -5,-12 -6,-16 -12,1 -22,10 -17,24l36 0c2,-14 5,-13 13,-19 -3,-2 -9,-4 -13,-4 -2,6 -3,10 -7,14z"/>
  <path class="fil2" d="M39 95c0,5 3,5 6,10 5,11 14,10 19,1 2,-3 1,-3 3,-5 2,-3 2,-3 2,-7l-3 -2c0,-11 -2,-18 -15,-16 -9,2 -8,10 -9,15 0,4 0,1 -3,4z"/>
  <path class="fil2" d="M101 148c1,-3 2,-21 0,-23 -1,-2 -2,-1 -3,-3 -1,-2 1,0 -1,-1l-1 2c0,5 2,-3 1,17 -4,-4 -6,-14 -7,-19 -12,1 -29,12 -23,26 1,2 32,1 34,1z"/>
  <path class="fil3" d="M101 123l-3 -1c1,2 2,1 3,3 2,2 1,20 0,23 5,0 31,0 34,-1 2,-2 0,-8 0,-10 -3,-8 -13,-15 -22,-16 -4,7 -2,11 -8,18 -4,-19 3,-10 1,-18 -6,0 1,1 -5,2z"/>
  <path class="fil1" d="M129 123c9,8 5,9 9,17l34 -1c3,-1 9,-19 -10,-20 3,3 3,4 2,9l-4 -3c-4,3 -6,8 -9,11 -2,-2 -8,-9 -9,-11 -1,1 -3,2 -5,2 -1,-4 1,-6 3,-8 -5,-1 -8,2 -11,4z"/>
  <path class="fil2" d="M101 119c1,-6 1,-29 1,-36l-5 0c-4,-1 -8,0 -10,2l-1 9c-3,2 -5,2 -3,7 2,5 3,2 5,7 3,5 5,10 13,11z"/>
  <path class="fil3" d="M101 119l1 0c6,-1 10,-5 12,-11 2,-6 3,-3 5,-7 3,-5 0,-5 -3,-7l0 -9c-6,-2 -9,-3 -15,-3 -1,0 -1,0 -3,0 -1,0 -1,0 -1,1l5 0c0,7 0,30 -1,36z"/>
  <path class="fil2" d="M97 79c2,-1 1,-1 5,-1 0,-8 1,-14 -2,-15 -4,1 -2,3 -12,5 -5,1 -3,0 -8,10 4,4 3,3 7,3 4,0 6,-1 10,-2z"/>
  <path class="fil3" d="M97 79l4 0c12,-1 14,6 20,-1 -4,-10 -1,-9 -8,-10 -2,0 -3,-1 -5,-1 -3,-2 -3,-3 -7,-5l-1 1c3,1 2,7 2,15 -4,0 -3,0 -5,1z"/>
  <path class="fil2" d="M0 6c1,0 7,-5 8,-6l-8 0 0 6z"/>
 </g>
</svg>
